<svg width="100" height="100" viewBox="0 0 100 100" fill="none" xmlns="http://www.w3.org/2000/svg">
<path d="M50 100C77.6142 100 100 77.6142 100 50C100 22.3858 77.6142 0 50 0C22.3858 0 0 22.3858 0 50C0 77.6142 22.3858 100 50 100Z" fill="#0067B6"/>
<path d="M79.8739 54.0237V74.6376H67.9225V55.4052C67.9225 50.5761 66.1969 47.2783 61.8697 47.2783C58.5674 47.2783 56.6056 49.4985 55.7393 51.6484C55.4247 52.4167 55.3436 53.4835 55.3436 54.5611V74.6367H43.3913C43.3913 74.6367 43.5517 42.0633 43.3913 38.6916H55.3445V43.7853C55.3204 43.8254 55.2865 43.8647 55.2651 43.903H55.3445V43.7853C56.9328 41.3414 59.7653 37.8475 66.1158 37.8475C73.9788 37.8475 79.8739 42.9849 79.8739 54.0237ZM30.8882 21.3647C26.7998 21.3647 24.125 24.0484 24.125 27.5744C24.125 31.0255 26.7222 33.7868 30.7313 33.7868H30.8088C34.9774 33.7868 37.5693 31.0255 37.5693 27.5744C37.49 24.0484 34.9774 21.3647 30.8882 21.3647ZM24.8354 74.6376H36.7832V38.6916H24.8354V74.6376Z" fill="white"/>
</svg>
