<svg width="2171" height="333" viewBox="0 0 2171 333" fill="none" xmlns="http://www.w3.org/2000/svg">
<path fill-rule="evenodd" clip-rule="evenodd" d="M452.334 47.0454L429.222 77.8486L400.987 57.3045L424.086 26.5013L452.334 47.0454ZM601.266 111.233C598.698 126.641 590.994 144.604 570.463 144.604C555.055 144.604 547.351 134.332 542.214 126.628H539.633V239.608L570.45 260.152L590.981 239.608L596.117 244.744L549.906 288.387L488.286 252.448V249.88C495.99 247.325 498.558 244.744 498.558 234.472V139.468C524.238 124.06 547.351 111.22 565.314 100.948C567.882 103.516 575.586 111.22 583.29 111.22C590.994 111.22 596.13 111.22 598.698 108.652L601.266 111.233V111.233ZM480.569 252.448L442.049 288.387L400.974 262.72C408.678 260.152 411.246 255.016 411.246 247.312V136.887L398.406 129.183L388.134 139.455L382.998 134.319L418.937 98.3798L460.012 124.047V126.615C454.876 129.183 452.308 131.751 452.308 139.455V252.435L462.58 260.139L475.42 247.312L480.569 252.448V252.448ZM388.134 252.448L352.194 288.387L321.378 267.856V147.172L293.13 129.196L287.994 136.9V252.448L305.97 262.72L280.29 288.387L239.215 262.72C244.351 260.152 246.919 257.584 246.919 244.744V49.6005C246.919 41.8964 244.351 31.6244 241.783 23.9204H246.919C252.055 29.0564 254.623 34.1924 254.623 44.4645H257.191C264.895 29.0564 277.735 18.7973 298.266 16.2163C293.13 23.9203 287.994 34.1924 287.994 44.4645V126.628L316.242 100.961C329.082 108.665 354.75 126.628 370.158 134.332C365.022 136.9 359.886 142.036 359.886 149.74V252.448L372.726 260.152L382.998 247.325L388.134 252.448V252.448ZM1037.76 134.332C1030.06 139.468 1027.49 139.468 1027.49 152.308V247.325C1001.82 262.733 986.416 272.992 960.736 288.4C942.246 276.714 923.41 265.585 904.252 255.029V252.461C911.957 249.893 914.525 244.757 914.525 234.485V142.049C937.637 129.209 960.736 113.801 981.28 100.974C994.12 108.665 1022.37 126.628 1037.76 134.332ZM986.416 260.152V147.172L955.613 126.628V242.176C960.749 247.312 973.589 255.016 986.416 262.72V260.152V260.152ZM899.116 275.56C899.116 288.4 886.276 293.536 870.868 306.376C870.868 306.376 850.324 324.352 837.484 332.043C829.78 326.907 822.076 324.339 804.1 324.339C786.124 324.339 768.161 329.475 757.889 332.043C770.729 311.512 791.26 293.523 822.076 293.523C840.052 293.523 852.879 298.659 863.151 306.363C865.719 303.808 870.855 301.227 870.855 296.091C870.855 283.264 850.311 288.387 842.607 262.72L816.927 288.387C816.927 288.387 780.988 265.275 760.444 255.016V252.448C765.58 249.88 768.148 247.312 768.148 239.608V142.036C768.148 142.036 798.951 126.628 834.903 100.961L891.386 134.332C886.25 139.468 883.682 139.468 883.682 152.308V237.04C883.695 255.029 899.116 257.584 899.116 275.56V275.56ZM842.62 255.029V147.185C842.62 147.185 824.644 136.913 809.236 126.641V242.189L837.484 260.165L842.62 255.029ZM750.185 252.448L714.245 288.387L678.293 265.275C665.453 272.992 657.762 280.683 644.922 288.387C624.378 283.251 603.834 262.72 603.834 239.595C603.834 213.927 629.501 195.951 650.058 185.679C632.082 177.975 614.106 160.012 611.538 136.887L675.725 100.948L729.641 134.319C721.937 139.455 719.369 142.023 719.369 152.295V249.867L734.777 260.139L745.049 249.867L750.185 252.448V252.448ZM678.293 180.556V147.185L644.922 126.641L639.786 129.209C639.786 149.753 644.922 170.284 660.317 183.124C665.453 183.124 673.157 180.556 678.293 180.556ZM678.293 257.584V185.692C655.194 188.26 639.786 203.668 639.786 224.212C639.786 242.189 655.194 257.584 673.157 262.733L678.293 257.584V257.584ZM2041.74 252.448L2005.8 288.387L1972.4 267.856V147.172L1946.72 129.196L1941.6 134.332V252.448L1959.56 262.72L1931.32 288.387L1892.81 262.72C1897.93 260.152 1900.51 255.016 1900.51 242.176V144.604L1885.1 129.196L1872.26 139.468L1869.71 134.332L1905.65 100.961L1939.01 129.209L1967.25 98.4057C1980.09 108.678 2008.34 126.641 2023.74 134.345C2016.03 139.481 2013.48 144.617 2013.48 154.889V252.461L2026.32 260.165L2036.58 249.893L2041.74 252.448V252.448ZM1882.54 252.448L1846.6 288.387L1810.66 265.275L1784.98 288.387C1767.01 278.115 1743.92 262.72 1728.51 255.016V252.448C1736.21 249.88 1738.77 247.312 1738.77 231.903V136.9L1725.93 129.196L1715.67 139.468L1710.53 136.9L1746.47 98.3927L1779.85 121.492V242.176L1808.1 260.152L1810.66 257.584V136.9L1795.25 126.628L1820.93 98.3927L1861.99 126.628C1854.29 129.196 1851.73 131.764 1851.73 142.036V249.88L1867.14 260.152L1879.98 247.325L1882.54 252.448V252.448ZM1535.89 47.0454L1512.79 77.8486L1484.55 57.3045L1507.64 26.5013L1535.89 47.0454ZM1564.14 252.448L1525.63 288.387L1484.55 262.72C1489.68 260.152 1494.8 255.016 1494.8 247.312V136.887L1481.99 129.183L1471.71 139.455L1466.57 134.319L1502.53 98.3798L1543.6 124.047V126.615C1538.47 129.183 1535.89 131.751 1535.89 139.455V252.435L1546.18 260.139L1559.02 247.312L1564.14 252.448V252.448ZM1461.45 111.233C1461.45 126.641 1451.16 144.604 1430.62 144.604C1420.36 144.604 1412.65 139.468 1407.52 131.777H1404.96V249.88L1420.37 260.152L1433.21 247.325L1438.33 252.461L1399.83 288.4L1356.18 260.152C1363.89 257.584 1363.89 252.448 1363.89 242.176V144.604L1348.48 129.196L1338.19 139.468L1333.06 136.9L1369.02 98.3927L1399.83 126.628H1402.38L1425.51 98.3927C1433.21 106.097 1440.92 111.233 1451.17 111.233H1461.45V111.233ZM2170.11 154.876C2147.02 167.716 2118.77 185.692 2098.22 201.087V239.608L2129.03 260.152L2147.02 239.608L2152.14 244.744L2108.5 288.387L2046.89 252.448V249.88C2054.59 249.88 2057.15 244.744 2057.15 231.903V144.604C2082.83 129.196 2111.08 108.665 2129.04 98.3927L2170.11 154.876V154.876ZM2129.03 172.852C2123.9 165.148 2105.93 139.481 2098.22 126.641V193.396L2129.03 172.852ZM1705.36 134.332C1697.65 136.9 1695.1 142.036 1695.1 152.308V247.325L1628.33 288.4C1609.61 277.092 1590.78 265.968 1571.85 255.029V252.461C1579.55 249.893 1582.13 244.757 1582.13 229.348V49.6005C1582.13 39.3284 1579.55 31.6244 1576.99 26.4884L1579.55 23.9204C1587.25 29.0564 1589.83 34.1924 1589.83 44.4645H1592.39C1600.09 29.0564 1610.38 18.7973 1633.48 16.2163V18.7843C1628.34 26.4883 1623.22 31.6244 1623.22 47.0325V126.628L1648.89 98.3927L1705.36 134.332V134.332ZM1654.01 260.152V147.172L1628.33 129.196L1623.21 134.332V242.176L1654.01 260.152Z" fill="#86B9E6"/>
<path fill-rule="evenodd" clip-rule="evenodd" d="M1356.17 16.2291C1356.17 47.0452 1340.76 72.7124 1307.38 72.7124H1302.24V257.583C1315.08 255.028 1338.18 247.324 1348.47 239.607L1351.02 242.175C1335.61 265.274 1291.97 296.091 1240.62 296.091C1176.41 296.091 1125.06 255.015 1125.06 185.679C1125.06 124.06 1173.86 80.4035 1207.24 67.5634L1209.79 70.1314C1186.7 90.6755 1171.29 118.924 1171.29 162.567C1171.29 201.074 1186.7 229.322 1212.35 244.73L1222.63 239.594C1230.34 234.458 1230.34 231.89 1230.34 208.778V121.479C1230.34 106.071 1230.34 100.948 1220.08 98.3796V95.8116L1268.85 70.1314C1238.04 64.9954 1196.95 47.0323 1173.86 47.0323C1150.76 47.0323 1135.35 57.3043 1135.35 75.2804C1135.35 85.5525 1143.05 90.6885 1145.61 93.2565L1143.05 95.8245C1132.77 90.6885 1119.93 80.4164 1119.93 57.3043C1119.93 23.9201 1145.61 0.821045 1181.56 0.821045C1232.91 0.821045 1279.13 34.2052 1322.79 34.2052C1338.2 34.2052 1348.47 26.5012 1353.59 13.6611L1356.17 16.2291V16.2291ZM1297.12 257.583V72.7124H1276.58V183.124C1276.58 206.236 1276.58 213.94 1250.9 229.335L1217.51 249.879C1232.92 257.583 1253.45 260.151 1271.44 260.151C1279.13 260.151 1286.84 260.151 1297.12 257.583V257.583ZM234.079 239.607C216.103 260.151 175.028 296.091 126.236 296.091C54.3443 296.091 0.416016 247.311 0.416016 162.58C0.416016 85.5525 64.6164 41.8962 105.692 26.4882L108.26 29.0561C69.7394 54.7233 49.1953 85.5395 49.1953 139.468C49.1953 188.26 64.6034 221.631 87.7155 242.175L97.9876 234.471C108.26 229.335 108.26 221.631 108.26 208.791V85.5525C108.26 72.7124 105.692 67.5764 97.9876 62.4404V59.8723C123.655 47.0322 154.471 26.4882 175.015 11.0801C182.719 18.7842 190.423 23.9202 203.263 23.9202C213.535 23.9202 221.239 18.7841 226.375 16.2161C226.375 41.8962 213.535 59.8723 187.855 59.8723H177.583V257.583C198.127 257.583 218.658 242.175 231.511 237.039L234.079 239.607V239.607ZM172.46 260.151V57.3043C164.756 54.7363 159.62 52.1683 154.484 47.0323V177.988C154.484 201.087 151.916 208.791 121.1 229.335L95.4325 244.743C113.396 257.57 139.089 260.151 164.756 260.151H172.46Z" fill="#86B9E6"/>
</svg>
