<svg width="2061" height="296" viewBox="0 0 2061 296" fill="none" xmlns="http://www.w3.org/2000/svg">
<path d="M337.632 260.505V35.2722C337.632 23.5798 340.295 14.8031 345.632 8.94785C350.963 3.09866 357.861 0.183105 366.318 0.183105C375.035 0.183105 382.095 3.06854 387.498 8.85147C392.901 14.6344 395.606 23.4413 395.606 35.2722V260.505C395.606 272.33 392.901 281.173 387.498 286.998C382.101 292.871 375.041 295.787 366.318 295.787C357.993 295.787 351.126 292.823 345.728 286.902C340.325 281.004 337.632 272.191 337.632 260.505ZM1912.48 295.793C1831.04 295.793 1764.77 229.53 1764.77 148.081C1764.77 66.6325 1831.05 0.363822 1912.48 0.363822C1993.93 0.363822 2060.2 66.6325 2060.2 148.081C2060.2 229.53 1993.95 295.793 1912.48 295.793ZM1912.48 60.1689C1864 60.1689 1824.55 99.6132 1824.55 148.093C1824.55 196.568 1864 236.006 1912.48 236.006C1960.96 236.006 2000.41 196.568 2000.41 148.093C2000.41 99.6072 1960.96 60.1689 1912.48 60.1689V60.1689ZM1249.36 295.793C1167.92 295.793 1101.65 229.53 1101.65 148.081C1101.65 66.6325 1167.92 0.363822 1249.36 0.363822C1330.81 0.363822 1397.08 66.6325 1397.08 148.081C1397.08 229.53 1330.82 295.793 1249.36 295.793ZM1249.36 60.1689C1200.89 60.1689 1161.44 99.6132 1161.44 148.093C1161.44 196.568 1200.89 236.006 1249.36 236.006C1297.85 236.006 1337.29 196.568 1337.29 148.093C1337.29 99.6072 1297.85 60.1689 1249.36 60.1689V60.1689ZM1717.45 147.985V147.949C1717.45 116.575 1707.44 86.0197 1688.86 60.7351C1662.77 25.1581 1621.16 1.67703 1574.11 0.285511C1572.65 0.249368 1571.2 0.183105 1569.71 0.183105L1495.55 0.273464C1482.87 0.273464 1473.71 3.1589 1468.04 8.92978C1462.38 14.6946 1459.54 24.0256 1459.54 36.9047V259.083C1459.54 271.968 1462.38 281.287 1468.04 287.064C1473.71 292.829 1482.88 295.727 1495.55 295.727L1569.71 295.823C1571.2 295.823 1572.65 295.751 1574.11 295.703C1621.16 294.323 1662.77 270.842 1688.86 235.265C1707.44 209.985 1717.46 179.427 1717.45 148.051V147.985V147.985ZM1580.2 235.283C1573.04 235.741 1565.36 235.825 1557.09 235.825H1518.3V60.1568H1557.09C1565.36 60.1568 1573.03 60.2472 1580.2 60.705C1592.58 62.2038 1604.51 66.3204 1615.18 72.7814C1625.86 79.2425 1635.03 87.9001 1642.1 98.1796C1652.17 112.778 1657.58 130.083 1657.62 147.816V148.16C1657.59 165.894 1652.18 183.201 1642.1 197.796C1635.03 208.079 1625.86 216.739 1615.18 223.203C1604.51 229.666 1592.58 233.784 1580.2 235.283V235.283ZM1017.99 1.50233C1007.2 -1.85899 995.536 2.38785 989.253 11.9598L900.178 147.636L811.127 11.9598C804.832 2.38785 793.17 -1.85899 782.381 1.50233C771.587 4.85763 764.219 15.032 764.219 26.5617V267.685C764.219 282.149 775.689 293.889 789.845 293.889C804.007 293.889 815.47 282.173 815.47 267.685V112.619L878.703 208.929L878.83 209.127L878.914 209.248L879.161 209.603C879.546 210.188 879.962 210.742 880.408 211.308L881.01 211.977C881.372 212.38 881.709 212.814 882.089 213.175C882.432 213.543 882.793 213.838 883.161 214.175L883.938 214.892C884.444 215.302 884.962 215.693 885.492 216.055L885.926 216.398L885.992 216.446C886.558 216.82 887.137 217.169 887.733 217.519L888.221 217.826C888.667 218.073 889.124 218.247 889.6 218.47C892.197 219.675 894.913 220.434 897.642 220.717L897.702 220.729C898.245 220.778 898.787 220.79 899.323 220.826L900.208 220.862L901.1 220.826C901.642 220.79 902.184 220.778 902.726 220.729L902.787 220.717C905.575 220.419 908.295 219.66 910.834 218.47C911.292 218.247 911.75 218.073 912.202 217.826L912.696 217.519C913.292 217.169 913.871 216.85 914.437 216.446L914.515 216.398L914.937 216.055C915.467 215.681 915.985 215.302 916.491 214.892L917.292 214.163C917.647 213.838 917.997 213.537 918.328 213.187C918.714 212.814 919.057 212.38 919.418 211.977L920.033 211.308C920.467 210.742 920.882 210.175 921.28 209.603L921.527 209.248L921.599 209.127L921.726 208.929L984.904 112.619V267.685C984.904 282.149 996.374 293.889 1010.54 293.889C1024.69 293.889 1036.17 282.173 1036.17 267.685V26.5617C1036.17 15.032 1028.79 4.85763 1017.99 1.50233V1.50233ZM677.012 289.769H485.47C475.386 289.769 464.194 283.474 460.044 273.661C455.899 263.854 455.05 250.505 463.965 239.897L620.658 58.0846H491.205C477.055 58.0846 465.58 45.826 465.58 30.7061C465.58 15.5862 477.055 6.34553 491.205 6.34553H665.771C675.849 6.34553 686.282 7.94788 695.39 17.9355C703.728 27.0616 703.354 46.7537 694.029 58.4942L542.625 235.024H677.024C691.18 235.024 701.481 247.277 701.481 262.403C701.475 277.522 691.168 289.769 677.012 289.769V289.769ZM146.651 295.793C104.141 295.793 65.594 278.932 38.101 248.343C13.885 221.386 0 185.857 0 150.876C0 41.0973 91.2557 0.183105 148.784 0.183105C205.342 0.183105 246.859 27.917 248.599 29.0977C261.34 37.742 264.743 55.2052 256.214 68.1144C254.217 71.1634 251.636 73.7861 248.619 75.8306C245.603 77.8752 242.21 79.3009 238.638 80.0254C235.067 80.7498 231.387 80.7584 227.812 80.0509C224.237 79.3433 220.838 77.9336 217.811 75.9033C217.07 75.4213 187.62 56.4341 148.784 56.4341C112.725 56.4341 63.0037 80.2224 63.0037 150.888C63.0037 191.092 92.9003 238.494 147.724 238.494C178.566 238.494 200.252 230.283 212.854 222.259V180.466H170.138C154.802 180.466 142.38 167.876 142.38 152.346C142.38 136.817 154.802 124.227 170.138 124.227H240.618C255.949 124.227 268.376 136.817 268.376 152.346V235.982C268.38 239.739 267.638 243.459 266.193 246.926C264.747 250.394 262.626 253.539 259.954 256.18C241.347 274.426 200.505 295.793 146.651 295.793" fill="#86B9E6"/>
</svg>
