<svg width="2002" height="550" viewBox="0 0 2002 550" fill="none" xmlns="http://www.w3.org/2000/svg">
<path d="M1502.8 305.079L1500.66 301.233L1499.43 299.079V299.065L1585.12 153.796L1587.9 149.046L1588.85 147.457H1534.96V147.464L1531.83 152.657L1533.05 150.654L1531.83 152.657L1479.91 238.639L1455.6 278.923C1454.3 281.153 1453.16 283.142 1452.2 284.951C1452.06 285.165 1451.96 285.379 1451.85 285.572C1451.5 286.235 1451.15 286.87 1450.85 287.443C1450.7 287.72 1450.59 287.989 1450.43 288.244C1450.25 288.638 1450.05 288.99 1449.9 289.398C1449.82 289.499 1449.76 289.614 1449.72 289.736C1449.59 290.019 1449.49 290.288 1449.36 290.551C1449.17 290.986 1448.98 291.414 1448.81 291.849C1448.71 292.091 1448.64 292.36 1448.52 292.608C1448.38 292.991 1448.25 293.381 1448.14 293.775C1448.05 294.024 1448 294.273 1447.93 294.5C1447.8 294.873 1447.76 295.239 1447.68 295.578C1447.63 295.819 1447.58 296.047 1447.55 296.296C1447.49 296.647 1447.44 297.003 1447.42 297.359C1447.39 297.574 1447.37 297.791 1447.38 298.008C1447.35 298.374 1447.38 298.733 1447.39 299.085C1447.39 299.286 1447.39 299.493 1447.42 299.665C1447.48 300.087 1447.55 300.46 1447.59 300.895C1447.63 301.04 1447.63 301.205 1447.67 301.35C1447.79 301.847 1447.93 302.358 1448.09 302.869L1448.17 303.077C1448.91 305.41 1450.18 307.958 1451.96 311.155C1452.06 311.314 1452.13 311.48 1452.23 311.639C1452.74 312.516 1453.26 313.448 1453.81 314.401L1543.83 471.346H1595.94L1502.8 305.079V305.079ZM1394.62 8.87988V471.408H1442V8.87988H1394.62Z" fill="#86B9E6"/>
<path d="M1992.72 149.985C1989.4 148.597 1986.02 147.354 1982.5 146.284C1981.51 145.991 1980.52 145.712 1979.52 145.448L1979.31 145.4C1978.44 145.166 1977.57 144.948 1976.7 144.744L1976.38 144.682C1975.6 144.502 1974.8 144.316 1973.97 144.157C1967.16 142.83 1960.23 142.146 1953.29 142.113H1953.14C1951.46 142.12 1949.81 142.168 1948.12 142.258C1947.67 142.272 1947.2 142.313 1946.72 142.355C1945.57 142.431 1944.41 142.5 1943.25 142.631C1942.63 142.679 1942.03 142.762 1941.42 142.824C1940.42 142.948 1939.43 143.073 1938.41 143.218C1937.81 143.307 1937.2 143.397 1936.57 143.501C1935.56 143.667 1934.58 143.853 1933.59 144.039C1933.19 144.136 1932.8 144.184 1932.39 144.26C1932.23 144.295 1932.05 144.357 1931.89 144.392C1930.76 144.626 1929.63 144.893 1928.51 145.193C1928.1 145.303 1927.71 145.386 1927.3 145.483C1925.82 145.89 1924.39 146.311 1922.93 146.781L1922.69 146.85C1922.55 146.891 1922.39 146.974 1922.25 147.009C1920.21 147.692 1918.22 148.41 1916.27 149.204C1916.04 149.301 1915.84 149.37 1915.61 149.46C1913.65 150.268 1911.7 151.165 1909.79 152.111C1909.6 152.222 1909.38 152.298 1909.16 152.401C1909 152.498 1908.81 152.595 1908.63 152.685C1907.31 153.382 1905.99 154.072 1904.71 154.825L1904.64 154.86L1904.13 155.157C1902.87 155.902 1901.62 156.676 1900.37 157.477C1900.07 157.677 1899.77 157.891 1899.46 158.084C1899.32 158.195 1899.19 158.271 1899.03 158.374C1898.11 158.996 1897.21 159.645 1896.3 160.28C1896.08 160.432 1895.87 160.598 1895.65 160.757C1895.44 160.902 1895.22 161.067 1894.99 161.219C1893.83 162.089 1892.7 162.973 1891.61 163.891C1891.6 163.898 1891.6 163.905 1891.6 163.912C1891.4 164.063 1891.21 164.217 1891.02 164.375L1891 164.389C1889.91 165.31 1888.84 166.254 1887.79 167.22C1887.38 167.586 1887.02 167.972 1886.61 168.352C1885.83 169.084 1885.06 169.85 1884.29 170.624L1883.75 171.19L1883.18 171.791C1882.84 172.129 1882.52 172.495 1882.2 172.84C1881.54 173.545 1880.9 174.228 1880.31 174.953H1880.29C1880.11 175.147 1879.96 175.333 1879.8 175.526L1879.76 175.547C1878.86 176.638 1877.95 177.715 1877.1 178.841L1876.1 180.125C1875.61 180.788 1875.13 181.458 1874.65 182.135C1874.49 182.342 1874.32 182.549 1874.2 182.756C1874.04 182.97 1873.89 183.189 1873.74 183.412C1873.6 183.626 1873.44 183.847 1873.31 184.068C1872.49 185.263 1871.69 186.464 1870.93 187.686C1870.93 187.693 1870.93 187.7 1870.92 187.707C1870.79 187.886 1870.69 188.08 1870.57 188.266C1870.11 189.033 1869.67 189.841 1869.23 190.607C1868.98 191.07 1868.67 191.532 1868.43 192.002C1868.36 192.099 1868.29 192.188 1868.28 192.278C1868.1 192.644 1867.89 193.01 1867.69 193.383L1866.17 196.311V196.331C1866.03 196.621 1865.88 196.898 1865.75 197.194C1865.64 197.36 1865.59 197.547 1865.5 197.719C1865.13 198.458 1864.81 199.225 1864.49 199.984C1864.22 200.592 1863.92 201.193 1863.67 201.8C1863.64 201.862 1863.63 201.938 1863.6 201.993C1863.56 202.069 1863.51 202.145 1863.49 202.249C1863.33 202.646 1863.18 203.049 1863.05 203.457C1862.64 204.424 1862.25 205.391 1861.9 206.357C1861.73 206.848 1861.55 207.331 1861.42 207.794C1861.02 208.864 1860.7 209.934 1860.36 211.011C1860.29 211.259 1860.21 211.508 1860.15 211.757L1859.93 212.448C1859.5 213.96 1859.08 215.472 1858.7 216.998V217.005H1858.69V217.095C1858.13 219.427 1857.66 221.779 1857.27 224.145C1857.24 224.207 1857.24 224.276 1857.22 224.338C1857.07 225.264 1856.94 226.175 1856.82 227.086L1856.6 228.585C1856.57 228.813 1856.57 229.047 1856.54 229.303C1856.37 230.87 1856.2 232.459 1856.11 234.04C1856.1 234.13 1856.08 234.212 1856.08 234.309C1856.07 234.371 1856.07 234.447 1856.06 234.489C1855.98 235.932 1855.95 237.396 1855.92 238.846C1855.89 239.372 1855.88 239.9 1855.88 240.427V471.408H1903.25V240.427C1903.25 227.176 1909.25 213.235 1918.74 203.278C1919.55 202.429 1920.39 201.606 1921.25 200.813C1922.03 200.115 1922.8 199.452 1923.62 198.81C1929.16 194.315 1935.56 191.153 1942.49 189.993C1944.39 189.685 1946.32 189.521 1948.25 189.502L1999.75 190.69C2000.19 183.025 2000.6 174.698 2001.05 165.348C2001.06 164.692 2001.12 164.05 2001.15 163.387L2001.16 162.883C2001.22 161.523 2001.3 160.142 2001.33 158.72C2001.33 158.616 2001.36 158.519 2001.36 158.416V158.112C2001.43 156.752 2001.48 155.377 2001.53 153.969C1998.63 152.54 1995.7 151.207 1992.72 149.985V149.985ZM1799.56 231.506C1799.54 231.332 1799.53 231.156 1799.53 230.981C1799.43 229.628 1799.35 228.267 1799.21 226.941V226.824C1799.19 226.61 1799.13 226.396 1799.12 226.182C1799.04 225.415 1798.95 224.663 1798.85 223.903C1798.76 223.427 1798.71 222.943 1798.66 222.467V222.46C1798.59 222.032 1798.52 221.597 1798.47 221.183C1798.31 220.154 1798.1 219.125 1797.92 218.117C1797.83 217.654 1797.73 217.185 1797.63 216.715C1797.46 215.9 1797.26 215.072 1797.07 214.271C1797.05 214.126 1797 214.008 1796.98 213.856C1796.96 213.856 1796.96 213.843 1796.96 213.843C1796.84 213.38 1796.76 212.917 1796.63 212.455C1796.48 211.882 1796.29 211.301 1796.16 210.728C1796.01 210.293 1795.91 209.851 1795.76 209.416C1795.66 209.05 1795.57 208.684 1795.44 208.312C1795.38 208.146 1795.33 207.994 1795.29 207.828C1794.9 206.647 1794.53 205.467 1794.11 204.307C1793.98 204.024 1793.89 203.747 1793.77 203.471C1793.37 202.435 1793.01 201.407 1792.58 200.392C1792.37 199.915 1792.17 199.425 1791.96 198.948C1791.72 198.403 1791.47 197.857 1791.23 197.339C1791.15 197.16 1791.09 196.96 1790.99 196.773C1790.18 195.047 1789.35 193.328 1788.44 191.664C1788.29 191.415 1788.16 191.166 1788.01 190.932C1787.21 189.449 1786.36 187.996 1785.46 186.575C1785.17 186.105 1784.89 185.642 1784.57 185.173C1783.75 183.898 1782.9 182.65 1782 181.43C1781.77 181.058 1781.52 180.697 1781.26 180.346C1780.13 178.819 1778.94 177.33 1777.71 175.879C1777.37 175.478 1777.03 175.071 1776.68 174.691C1775.58 173.394 1774.44 172.135 1773.25 170.914C1773.18 170.824 1773.11 170.762 1773.04 170.672C1772.93 170.569 1772.87 170.465 1772.74 170.368C1771.53 169.125 1770.27 167.938 1768.96 166.778L1768.6 166.405C1768.27 166.122 1767.95 165.839 1767.6 165.556L1767.46 165.411C1766.23 164.332 1764.97 163.289 1763.68 162.283C1763.41 162.075 1763.14 161.848 1762.87 161.633V161.627C1761.35 160.473 1759.79 159.36 1758.2 158.291C1757.85 158.057 1757.51 157.843 1757.17 157.622C1757.14 157.594 1757.07 157.559 1757.06 157.532C1755.7 156.652 1754.32 155.813 1752.91 155.018C1752.68 154.867 1752.44 154.724 1752.19 154.59C1752.07 154.514 1751.98 154.445 1751.83 154.376C1750.15 153.428 1748.44 152.537 1746.7 151.704L1746.27 151.504C1744.92 150.885 1743.55 150.294 1742.18 149.729C1741.84 149.584 1741.5 149.425 1741.16 149.294C1740.73 149.115 1740.29 148.928 1739.85 148.762C1738.03 148.052 1736.19 147.41 1734.32 146.836C1733.98 146.732 1733.64 146.663 1733.32 146.553C1731.72 146.074 1730.11 145.641 1728.48 145.255C1728 145.137 1727.47 145.02 1726.95 144.903C1725.02 144.468 1723.07 144.097 1721.11 143.791C1720.91 143.756 1720.67 143.736 1720.44 143.701C1718.64 143.442 1716.83 143.239 1715.02 143.093L1713.43 142.962L1713.13 142.955C1711.31 142.824 1709.49 142.753 1707.67 142.741L1707.27 142.734C1706.01 142.734 1704.77 142.776 1703.5 142.831C1702.63 142.872 1701.72 142.914 1700.85 142.983C1699.84 143.045 1698.86 143.1 1697.86 143.204C1697.31 143.259 1696.74 143.342 1696.18 143.411C1695.48 143.495 1694.79 143.587 1694.1 143.687C1693.83 143.722 1693.55 143.742 1693.29 143.784V143.791C1692.67 143.887 1692.06 143.991 1691.42 144.115C1690.78 144.217 1690.15 144.33 1689.51 144.454L1688.79 144.585L1686.86 145.027C1686.02 145.198 1685.19 145.39 1684.36 145.6C1683.71 145.759 1683.07 145.959 1682.41 146.139C1681.61 146.359 1680.83 146.574 1680.02 146.822C1679.38 147.022 1678.75 147.243 1678.12 147.444L1678.07 147.457C1677.85 147.548 1677.63 147.626 1677.4 147.692C1676.85 147.872 1676.33 148.058 1675.76 148.251C1675.12 148.479 1674.5 148.735 1673.88 148.97C1673.13 149.267 1672.36 149.563 1671.61 149.874C1670.96 150.15 1670.33 150.427 1669.73 150.703L1668.13 151.421C1667.94 151.518 1667.75 151.587 1667.55 151.69C1666.94 151.98 1666.35 152.284 1665.74 152.581C1665.02 152.954 1664.28 153.32 1663.59 153.706C1662.99 154.022 1662.4 154.351 1661.81 154.694C1661.11 155.078 1660.42 155.478 1659.73 155.895C1659.15 156.234 1658.58 156.6 1658 156.959C1657.32 157.387 1656.67 157.815 1656.01 158.257C1655.43 158.63 1654.91 159.003 1654.34 159.403L1654.12 159.555L1652.39 160.791C1651.85 161.192 1651.34 161.585 1650.8 161.999C1650.16 162.497 1649.51 162.994 1648.91 163.498L1647.38 164.775C1646.76 165.3 1646.15 165.825 1645.54 166.363C1645.06 166.798 1644.55 167.24 1644.1 167.689C1643.5 168.241 1642.91 168.808 1642.33 169.388L1642.31 169.395C1641.83 169.83 1641.39 170.299 1640.94 170.748L1640.59 171.156C1640.14 171.604 1639.7 172.064 1639.27 172.537C1639.27 172.537 1639.25 172.564 1639.23 172.564C1638.8 173.027 1638.4 173.496 1637.97 173.966L1637.94 173.973C1637.39 174.594 1636.85 175.23 1636.35 175.844C1636.33 175.865 1636.3 175.872 1636.3 175.892C1635.89 176.369 1635.51 176.838 1635.11 177.322V177.329L1634.47 178.143C1634.18 178.523 1633.87 178.896 1633.58 179.283C1633.55 179.303 1633.52 179.328 1633.5 179.359C1633.15 179.851 1632.78 180.336 1632.41 180.816V180.836C1632.26 181.044 1632.1 181.271 1631.97 181.472C1631.63 181.927 1631.3 182.397 1630.97 182.866C1630.95 182.908 1630.92 182.942 1630.9 182.977C1630.56 183.453 1630.19 183.944 1629.89 184.441L1629.88 184.482L1629.35 185.276C1629.09 185.711 1628.8 186.139 1628.55 186.575L1628.43 186.72C1628.13 187.203 1627.82 187.693 1627.53 188.183C1627.5 188.197 1627.5 188.211 1627.49 188.232C1627.22 188.689 1626.96 189.152 1626.71 189.62C1626.57 189.896 1626.41 190.158 1626.26 190.421C1626.24 190.483 1626.19 190.545 1626.15 190.6C1625.88 191.077 1625.61 191.56 1625.33 192.036C1625.33 192.064 1625.33 192.078 1625.3 192.085C1625.15 192.437 1624.98 192.783 1624.8 193.121L1624.19 194.35C1624.13 194.453 1624.07 194.536 1624.04 194.633L1623.34 196.014C1623.32 196.021 1623.32 196.048 1623.31 196.062C1622.97 196.794 1622.65 197.54 1622.31 198.292C1622.29 198.348 1622.25 198.396 1622.25 198.437C1622.22 198.465 1622.22 198.493 1622.2 198.52C1622.15 198.613 1622.1 198.71 1622.07 198.81C1621.89 199.238 1621.65 199.653 1621.49 200.074C1621.49 200.102 1621.49 200.108 1621.47 200.136C1621.13 200.965 1620.8 201.814 1620.48 202.656C1620.25 203.209 1620.05 203.754 1619.84 204.314C1619.5 205.238 1619.19 206.17 1618.9 207.11C1618.74 207.6 1618.55 208.091 1618.41 208.574C1617.93 210.176 1617.47 211.833 1617.07 213.47V213.49L1617.04 213.497C1617.04 213.58 1617.01 213.656 1617.01 213.76C1616.7 214.951 1616.42 216.151 1616.18 217.357C1616.05 217.951 1615.95 218.566 1615.82 219.166V219.27C1615.67 220.126 1615.49 220.996 1615.37 221.88C1615.26 222.564 1615.2 223.268 1615.1 223.965V223.993C1615.1 224.034 1615.1 224.069 1615.07 224.11C1614.96 224.891 1614.88 225.678 1614.77 226.458C1614.7 227.213 1614.64 227.971 1614.62 228.73C1614.53 229.42 1614.48 230.09 1614.47 230.794C1614.47 230.877 1614.44 230.981 1614.44 231.078C1614.32 232.801 1614.27 234.529 1614.28 236.256V383.148C1614.29 385.551 1614.38 387.953 1614.57 390.349C1614.7 391.986 1614.84 393.588 1615.02 395.197C1615.06 395.494 1615.08 395.791 1615.13 396.074C1615.36 397.917 1615.66 399.74 1616.01 401.549L1616.29 403.048C1616.6 404.532 1616.94 406.003 1617.3 407.467C1617.4 407.895 1617.47 408.303 1617.58 408.717C1618.06 410.505 1618.59 412.273 1619.14 414.027C1619.27 414.455 1619.43 414.876 1619.57 415.304C1620.2 417.171 1620.88 419.02 1621.61 420.849C1622.39 422.856 1623.25 424.83 1624.19 426.767C1624.88 428.189 1625.56 429.591 1626.33 430.993C1626.44 431.151 1626.51 431.324 1626.6 431.504L1627.04 432.325C1627.67 433.444 1628.33 434.549 1628.98 435.633C1630.06 437.385 1631.17 439.112 1632.33 440.812C1632.55 441.122 1632.77 441.433 1633.01 441.723C1633.75 442.773 1634.53 443.829 1635.31 444.81L1636.32 446.094C1637.06 447.012 1637.82 447.924 1638.6 448.808L1639.61 449.94C1640.63 451.066 1641.68 452.164 1642.76 453.234C1642.83 453.332 1642.91 453.424 1643 453.51C1644.2 454.67 1645.43 455.796 1646.67 456.88C1646.98 457.163 1647.32 457.425 1647.67 457.701C1648.6 458.502 1649.55 459.283 1650.56 460.07C1650.97 460.367 1651.34 460.65 1651.74 460.954C1652.77 461.713 1653.84 462.473 1654.91 463.177C1655.21 463.384 1655.51 463.612 1655.82 463.812C1657.24 464.731 1658.68 465.615 1660.15 466.45L1660.37 466.574C1662.11 467.559 1663.89 468.46 1665.71 469.274C1666.91 469.827 1668.13 470.324 1669.32 470.835L1670.5 471.27C1671.97 471.85 1673.47 472.34 1674.96 472.83L1675.32 472.962C1677.25 473.543 1679.2 474.043 1681.17 474.46C1683.06 474.884 1684.97 475.223 1686.89 475.475C1688.33 475.668 1689.78 475.841 1691.25 475.938L1692.29 476.041C1694.13 476.179 1695.96 476.248 1697.86 476.248C1702.62 476.248 1707.54 475.834 1712.61 474.95L1769.45 466.057C1769.3 464.841 1769.18 463.654 1769.05 462.459C1768.98 461.741 1768.91 461.043 1768.85 460.325C1768.81 459.816 1768.77 459.307 1768.72 458.799C1768.65 457.998 1768.57 457.197 1768.54 456.362C1768.42 455.054 1768.31 453.744 1768.23 452.433L1768.15 451.273C1768.08 450.313 1768.01 449.388 1767.96 448.373C1767.96 448.075 1767.94 447.777 1767.9 447.482C1767.68 443.541 1767.48 439.598 1767.33 435.654V435.536C1767.25 433.983 1767.19 432.429 1767.14 430.875C1767.14 430.475 1767.11 430.13 1767.09 429.688V429.301H1707.27C1705.57 429.299 1703.87 429.196 1702.19 428.99C1700.78 428.855 1699.39 428.64 1698.01 428.348H1697.98C1696.65 428.063 1695.33 427.72 1694.03 427.319C1693.95 427.298 1693.91 427.298 1693.89 427.278C1693.67 427.222 1693.49 427.16 1693.29 427.098C1692 426.682 1690.72 426.214 1689.47 425.696C1689.38 425.655 1689.31 425.614 1689.23 425.558C1688.06 425.075 1686.9 424.523 1685.78 423.901C1685.58 423.777 1685.36 423.687 1685.18 423.577C1683.88 422.873 1682.62 422.089 1681.41 421.229C1680.4 420.513 1679.42 419.76 1678.47 418.971L1677.98 418.57C1676.96 417.715 1675.99 416.809 1675.06 415.857C1674.92 415.732 1674.81 415.587 1674.66 415.429C1673.82 414.565 1673.02 413.666 1672.25 412.736C1672.11 412.584 1671.98 412.425 1671.84 412.28C1671.03 411.259 1670.26 410.206 1669.53 409.124C1669.38 408.903 1669.26 408.682 1669.1 408.455C1668.83 408.02 1668.52 407.64 1668.3 407.163C1668.27 407.163 1668.27 407.156 1668.27 407.136C1667.96 406.625 1667.7 406.1 1667.38 405.554C1666.58 404.164 1665.89 402.722 1665.28 401.239C1665.19 401.004 1665.1 400.742 1664.99 400.486C1664.55 399.464 1664.21 398.408 1663.86 397.337C1663.75 397.032 1663.66 396.724 1663.59 396.412C1663.19 395.123 1662.86 393.816 1662.58 392.497C1662.54 392.304 1662.52 392.117 1662.47 391.931C1662.24 390.75 1662.07 389.559 1661.96 388.361C1661.73 386.6 1661.62 384.826 1661.63 383.051V332.734H1775.94C1782.18 332.78 1788.19 330.352 1792.65 325.981C1796.95 321.782 1799.62 315.851 1799.62 309.036V236.291C1799.67 234.696 1799.65 233.099 1799.56 231.506V231.506ZM1752.9 236.291V286.028H1661.69V236.291C1661.69 215.596 1674.99 198.037 1693.62 192.175C1699.38 190.382 1705.44 189.747 1711.44 190.303C1711.88 190.338 1712.28 190.4 1712.69 190.448C1713.7 190.573 1714.68 190.731 1715.65 190.904C1716.08 190.987 1716.49 191.056 1716.91 191.146C1718.08 191.415 1719.28 191.719 1720.45 192.078C1720.56 192.119 1720.7 192.154 1720.81 192.188C1723.39 193.014 1725.89 194.075 1728.27 195.358L1729.38 195.952C1730.35 196.504 1731.28 197.091 1732.22 197.712C1732.39 197.837 1732.59 197.94 1732.75 198.065C1733.84 198.81 1734.92 199.625 1735.92 200.461C1736.21 200.682 1736.46 200.937 1736.76 201.179C1737.49 201.821 1738.23 202.484 1738.92 203.167C1739.23 203.471 1739.53 203.768 1739.82 204.079C1740.54 204.831 1741.25 205.612 1741.94 206.413C1742.12 206.641 1742.32 206.848 1742.52 207.083C1743.57 208.395 1744.55 209.76 1745.47 211.17C1746 211.999 1746.49 212.834 1746.99 213.698C1747.2 214.098 1747.43 214.485 1747.65 214.892C1748.12 215.776 1748.55 216.674 1748.95 217.578C1749.1 217.917 1749.27 218.255 1749.39 218.586L1749.53 218.849C1749.56 218.932 1749.57 219.008 1749.62 219.09C1749.81 219.643 1750 220.209 1750.22 220.775C1750.43 221.445 1750.7 222.108 1750.91 222.792C1751.16 223.599 1751.35 224.414 1751.55 225.236C1751.72 225.871 1751.91 226.506 1752.03 227.142C1752.23 228.122 1752.34 229.117 1752.47 230.125C1752.54 230.636 1752.64 231.133 1752.7 231.651C1752.82 233.17 1752.9 234.717 1752.9 236.291V236.291ZM1297.69 242.678L1298.8 242.65L1301.1 242.581L1304.17 242.485L1305.96 242.429L1310.45 242.333H1310.52C1316.29 242.202 1322.41 242.105 1328.97 241.953C1330.52 241.919 1332.08 241.863 1333.68 241.829L1334.64 241.808C1336.8 241.746 1339.05 241.684 1341.35 241.608V235.69C1341.35 234.565 1341.29 233.432 1341.24 232.314V231.658C1341.19 230.843 1341.13 230.056 1341.1 229.255C1341.03 228.481 1340.97 227.701 1340.92 226.935C1340.85 226.178 1340.77 225.423 1340.68 224.67C1340.66 224.545 1340.66 224.449 1340.64 224.338C1340.55 223.648 1340.48 222.971 1340.35 222.281C1340.27 221.562 1340.15 220.824 1340.03 220.119L1339.6 217.765C1339.46 217.041 1339.3 216.321 1339.13 215.603C1338.99 214.851 1338.81 214.077 1338.63 213.311C1338.45 212.6 1338.24 211.888 1338.07 211.177C1338.05 211.136 1338.05 211.094 1338.03 211.039C1337.85 210.321 1337.61 209.603 1337.41 208.892C1337.2 208.194 1336.98 207.511 1336.76 206.827C1336.54 206.185 1336.32 205.545 1336.1 204.907C1336.05 204.84 1336.02 204.762 1336 204.68V204.673C1335.76 203.982 1335.52 203.292 1335.25 202.615C1335.02 201.966 1334.75 201.324 1334.49 200.682L1334.41 200.509C1334.13 199.811 1333.84 199.128 1333.55 198.451C1333.37 198.051 1333.18 197.692 1333.01 197.305C1332.94 197.139 1332.86 196.967 1332.79 196.808C1331.96 195.016 1331.08 193.247 1330.15 191.505C1330.15 191.484 1330.15 191.477 1330.13 191.47V191.463C1329.2 189.728 1328.2 188.037 1327.12 186.395C1326.96 186.098 1326.77 185.829 1326.6 185.553L1326.38 185.207C1325.42 183.729 1324.41 182.283 1323.36 180.871L1322.98 180.291C1321.79 178.735 1320.57 177.201 1319.31 175.692C1319.02 175.369 1318.73 175.042 1318.44 174.712C1317.3 173.42 1316.16 172.157 1314.96 170.928L1314.67 170.651C1313.19 169.125 1311.65 167.655 1310.06 166.246C1309.74 165.981 1309.42 165.714 1309.11 165.445C1307.82 164.34 1306.54 163.277 1305.22 162.234C1304.97 162.055 1304.76 161.861 1304.5 161.682C1304.46 161.654 1304.44 161.62 1304.37 161.599V161.585C1302.52 160.207 1300.63 158.883 1298.7 157.615C1297.26 156.685 1295.8 155.797 1294.31 154.949C1293.97 154.756 1293.61 154.549 1293.29 154.356C1291.56 153.396 1289.79 152.498 1288.01 151.642L1287.34 151.338C1287.27 151.317 1287.21 151.283 1287.18 151.269C1285.99 150.73 1284.77 150.226 1283.57 149.722C1283.18 149.57 1282.82 149.384 1282.44 149.232C1282.01 149.073 1281.59 148.894 1281.17 148.742C1279.31 148.032 1277.44 147.385 1275.54 146.801L1275.39 146.76C1275.19 146.691 1274.98 146.643 1274.76 146.58C1273.08 146.081 1271.37 145.632 1269.66 145.234C1269.18 145.117 1268.68 145.013 1268.22 144.889C1266.35 144.484 1264.47 144.134 1262.58 143.839C1262.47 143.832 1262.37 143.798 1262.28 143.784C1262.11 143.767 1261.94 143.744 1261.77 143.715C1261.35 143.646 1260.88 143.618 1260.46 143.57C1259.05 143.397 1257.64 143.211 1256.2 143.086H1256.18L1254.6 142.962C1252.54 142.811 1250.48 142.733 1248.41 142.727C1247.57 142.727 1246.74 142.769 1245.91 142.796H1245.87C1245.15 142.81 1244.46 142.817 1243.75 142.845L1243.59 142.852C1242.8 142.9 1242.01 142.983 1241.25 143.031L1241.14 143.038C1240.4 143.086 1239.64 143.135 1238.91 143.211H1238.9C1238.14 143.294 1237.39 143.404 1236.64 143.501L1236.5 143.522C1235.77 143.618 1235.02 143.687 1234.29 143.798C1233.82 143.881 1233.33 143.963 1232.86 144.06C1232.55 144.118 1232.24 144.169 1231.93 144.212L1231.6 144.267C1230.99 144.385 1230.37 144.474 1229.76 144.592L1229.74 144.613C1228.91 144.778 1228.09 144.985 1227.28 145.186C1227.24 145.186 1227.19 145.206 1227.14 145.22C1226.53 145.365 1225.91 145.496 1225.29 145.648L1225.28 145.655C1224.6 145.821 1223.96 146.028 1223.29 146.221C1223.08 146.273 1222.87 146.331 1222.66 146.394C1222.09 146.553 1221.5 146.712 1220.93 146.877L1220.91 146.891L1220.53 147.015L1218.95 147.554C1218.67 147.651 1218.4 147.734 1218.13 147.844C1217.62 148.01 1217.12 148.162 1216.62 148.348H1216.6V148.355C1216.42 148.41 1216.22 148.5 1216.03 148.569C1215.47 148.776 1214.93 149.004 1214.36 149.239C1214.09 149.342 1213.85 149.432 1213.59 149.543C1213.21 149.683 1212.83 149.832 1212.46 149.992H1212.43L1212.38 150.026C1211.6 150.371 1210.79 150.744 1209.98 151.117C1209.7 151.255 1209.41 151.359 1209.13 151.49C1208.88 151.614 1208.62 151.718 1208.38 151.856H1208.35C1207.38 152.312 1206.44 152.836 1205.48 153.334C1205.31 153.437 1205.08 153.534 1204.9 153.637C1204.75 153.727 1204.55 153.796 1204.39 153.907L1204.37 153.914C1203.67 154.3 1202.98 154.722 1202.25 155.129C1202.2 155.157 1202.18 155.177 1202.14 155.191C1201.62 155.481 1201.12 155.778 1200.61 156.082C1200.58 156.091 1200.55 156.107 1200.52 156.13C1200.51 156.137 1200.5 156.158 1200.48 156.158C1200.44 156.172 1200.44 156.185 1200.41 156.199C1199.31 156.869 1198.25 157.566 1197.16 158.278C1196.54 158.692 1195.96 159.12 1195.35 159.548C1194.6 160.087 1193.82 160.605 1193.1 161.164L1191.78 162.2C1191.06 162.773 1190.3 163.353 1189.59 163.94C1189.13 164.333 1188.66 164.727 1188.22 165.134L1186.21 166.881C1185.84 167.22 1185.49 167.572 1185.13 167.931C1184.4 168.614 1183.66 169.291 1182.97 170.016L1182.14 170.879C1181.4 171.667 1180.63 172.447 1179.92 173.248C1178.8 174.498 1177.71 175.775 1176.66 177.08C1176.28 177.543 1175.92 178.04 1175.57 178.509C1174.85 179.4 1174.18 180.305 1173.51 181.223C1173.4 181.361 1173.32 181.52 1173.2 181.658C1172.92 182.079 1172.62 182.487 1172.35 182.915C1171.53 184.095 1170.74 185.296 1169.99 186.519C1169.83 186.782 1169.66 187.03 1169.5 187.293C1168.94 188.211 1168.43 189.157 1167.9 190.103C1167.74 190.379 1167.58 190.655 1167.43 190.945C1167.29 191.215 1167.09 191.491 1166.96 191.774C1166.15 193.307 1165.38 194.861 1164.66 196.435C1164.6 196.511 1164.58 196.58 1164.54 196.656C1164.39 197.043 1164.21 197.422 1164.05 197.802C1163.54 198.976 1163.03 200.15 1162.54 201.351C1162.37 201.835 1162.16 202.353 1161.98 202.836C1161.96 202.891 1161.94 202.926 1161.94 202.967C1161.49 204.187 1161.05 205.414 1160.64 206.647C1160.5 207.117 1160.35 207.58 1160.2 208.07C1159.72 209.637 1159.24 211.219 1158.85 212.821C1158.85 212.938 1158.8 213.055 1158.76 213.173L1158.75 213.221V213.228C1156.93 220.575 1156.02 228.115 1156.02 235.683V383.741L1156.03 384.46C1156.04 386.041 1156.1 387.636 1156.18 389.183C1156.2 389.873 1156.29 390.522 1156.34 391.213C1156.42 392.373 1156.51 393.547 1156.67 394.707C1156.75 395.383 1156.82 396.067 1156.92 396.764C1157.07 397.98 1157.29 399.188 1157.5 400.383C1157.6 400.935 1157.67 401.501 1157.8 402.067C1158.15 403.807 1158.52 405.506 1158.96 407.184C1159.04 407.502 1159.14 407.785 1159.2 408.109C1160.06 411.257 1161.08 414.359 1162.26 417.404C1162.46 417.921 1162.68 418.419 1162.86 418.978C1163.41 420.276 1163.96 421.553 1164.54 422.838C1164.7 423.162 1164.83 423.48 1164.98 423.798C1165.73 425.379 1166.53 426.946 1167.38 428.507C1167.42 428.61 1167.49 428.707 1167.54 428.804C1167.62 428.949 1167.7 429.101 1167.8 429.246C1168.56 430.592 1169.36 431.959 1170.21 433.285C1171.28 434.995 1172.4 436.669 1173.58 438.305C1173.78 438.588 1173.98 438.899 1174.2 439.154C1175.53 440.998 1176.95 442.777 1178.45 444.485C1179.36 445.514 1180.27 446.564 1181.21 447.551C1181.61 447.972 1181.96 448.359 1182.37 448.787C1183.64 450.088 1184.94 451.354 1186.27 452.585C1187.57 453.786 1188.94 454.939 1190.33 456.065C1190.76 456.431 1191.2 456.755 1191.63 457.121C1192.68 457.895 1193.75 458.703 1194.82 459.497C1196.94 461.026 1199.13 462.466 1201.38 463.812C1202.7 464.586 1204.05 465.359 1205.4 466.057C1205.91 466.326 1206.42 466.595 1206.95 466.851C1208.2 467.5 1209.42 468.073 1210.71 468.66C1211.14 468.819 1211.57 469.053 1212.01 469.247C1213.67 469.958 1215.34 470.614 1217.06 471.249C1217.46 471.387 1217.87 471.525 1218.28 471.643C1219.64 472.119 1221.01 472.589 1222.41 472.989C1222.97 473.134 1223.51 473.307 1224.07 473.431C1225.56 473.859 1227.07 474.225 1228.58 474.55L1229.54 474.771C1231.38 475.157 1233.21 475.468 1235.07 475.737C1235.57 475.834 1236.07 475.882 1236.59 475.917C1238.59 476.171 1240.6 476.374 1242.61 476.525C1244.5 476.628 1246.44 476.718 1248.4 476.718C1249.9 476.718 1251.4 476.67 1252.89 476.58L1254.34 476.476C1255.35 476.414 1256.34 476.366 1257.33 476.255C1257.91 476.193 1258.48 476.117 1259.06 476.062C1259.94 475.938 1260.84 475.862 1261.73 475.717C1262.35 475.627 1262.95 475.523 1263.56 475.406C1264.4 475.275 1265.23 475.137 1266.06 474.985L1267.93 474.577L1270.34 474.039C1270.96 473.88 1271.59 473.7 1272.19 473.548L1274.56 472.899C1275.18 472.727 1275.77 472.513 1276.38 472.319C1277.15 472.082 1277.92 471.829 1278.68 471.56C1279.3 471.36 1279.89 471.132 1280.5 470.904C1281.24 470.635 1282 470.345 1282.72 470.061C1283.33 469.827 1283.91 469.578 1284.51 469.323C1285.22 469.012 1285.96 468.701 1286.69 468.363L1288.41 467.569L1290.56 466.505C1291.13 466.208 1291.65 465.911 1292.21 465.628C1292.92 465.235 1293.62 464.876 1294.32 464.455L1295.93 463.509C1296.63 463.08 1297.31 462.68 1297.99 462.245C1298.51 461.9 1299.02 461.547 1299.57 461.23C1300.25 460.802 1300.89 460.332 1301.55 459.87C1302.04 459.517 1302.57 459.172 1303.06 458.813C1303.72 458.342 1304.37 457.856 1305.01 457.356C1305.49 456.969 1305.98 456.638 1306.44 456.237C1307.09 455.727 1307.73 455.209 1308.35 454.663C1308.8 454.27 1309.24 453.911 1309.69 453.517C1310.33 452.965 1310.95 452.398 1311.56 451.818C1311.99 451.411 1312.41 451.045 1312.84 450.631C1313.46 450.044 1314.05 449.436 1314.66 448.828C1315.07 448.414 1315.47 448.034 1315.86 447.613C1316.46 446.985 1317.05 446.322 1317.63 445.693C1318.01 445.265 1318.37 444.886 1318.72 444.478C1319.33 443.774 1319.91 443.09 1320.47 442.393C1320.8 441.979 1321.16 441.606 1321.45 441.185C1322.07 440.446 1322.65 439.645 1323.24 438.864C1323.5 438.51 1323.76 438.162 1324.04 437.822C1324.68 436.938 1325.29 436.02 1325.91 435.115C1326.08 434.832 1326.27 434.576 1326.45 434.293C1327.22 433.133 1327.97 431.932 1328.69 430.716L1328.72 430.675C1330.32 427.969 1331.78 425.18 1333.08 422.32C1333.59 421.25 1334.08 420.159 1334.54 419.047C1334.68 418.667 1334.82 418.315 1334.97 417.942C1335.37 416.968 1335.74 416.022 1336.09 415.042L1336.55 413.695C1336.85 412.777 1337.18 411.845 1337.47 410.92L1337.9 409.449C1338.16 408.544 1338.4 407.626 1338.63 406.714C1338.78 406.19 1338.89 405.665 1339.01 405.133C1339.24 404.229 1339.44 403.331 1339.66 402.426C1339.75 401.881 1339.85 401.335 1339.96 400.776C1340.13 399.872 1340.28 398.981 1340.43 398.049L1340.66 396.385C1340.75 395.784 1340.8 395.176 1340.89 394.582C1340.9 394.341 1340.94 394.092 1340.95 393.864C1341.1 392.525 1341.2 391.192 1341.29 389.859C1341.33 389.557 1341.36 389.253 1341.38 388.948C1341.38 388.775 1341.43 388.589 1341.43 388.409C1340.36 388.409 1331.78 387.981 1320.03 387.222C1316.11 386.959 1311.84 386.697 1307.39 386.372C1303.25 386.089 1298.96 385.758 1294.63 385.44C1294.6 386.462 1294.49 387.47 1294.41 388.464C1294.36 388.982 1294.36 389.521 1294.29 390.046C1293.9 393.105 1293.18 396.115 1292.15 399.022C1285.9 416.886 1268.53 429.28 1248.43 429.28C1247.05 429.28 1245.69 429.197 1244.33 429.08L1243.34 428.983C1242.01 428.845 1240.7 428.649 1239.39 428.396L1239.12 428.327C1237.9 428.084 1236.7 427.78 1235.52 427.416L1234.72 427.202C1234.7 427.195 1234.68 427.195 1234.64 427.167C1233.41 426.772 1232.19 426.335 1230.99 425.855L1230.59 425.683C1229.51 425.223 1228.44 424.719 1227.4 424.17C1227.17 424.032 1226.89 423.915 1226.64 423.777C1225.53 423.152 1224.44 422.491 1223.38 421.795C1223.22 421.705 1223.08 421.595 1222.94 421.498C1221.78 420.707 1220.66 419.857 1219.59 418.95C1218.59 418.149 1217.63 417.289 1216.73 416.375C1216.59 416.23 1216.45 416.105 1216.32 415.96C1215.49 415.127 1214.7 414.256 1213.96 413.35C1213.81 413.198 1213.68 413.026 1213.54 412.867C1212.72 411.852 1211.94 410.807 1211.21 409.732C1211.08 409.58 1210.99 409.373 1210.86 409.2L1209.99 407.895L1209.95 407.812C1209.64 407.308 1209.36 406.763 1209.06 406.231L1208.71 405.589C1208.1 404.411 1207.53 403.211 1207 401.991C1206.91 401.77 1206.84 401.556 1206.75 401.315C1206.21 399.975 1205.73 398.608 1205.32 397.22C1204.93 395.895 1204.6 394.557 1204.31 393.208C1204.28 393.07 1204.28 392.946 1204.25 392.822C1204.01 391.543 1203.82 390.255 1203.67 388.962C1203.66 388.651 1203.61 388.347 1203.59 388.029C1203.45 386.572 1203.39 385.109 1203.39 383.645V235.697C1203.4 229.011 1204.87 222.407 1207.69 216.347C1210.52 210.287 1214.63 204.917 1219.75 200.612C1224.27 196.786 1229.51 193.904 1235.16 192.135C1240.81 190.367 1246.75 189.749 1252.65 190.317C1253.07 190.358 1253.47 190.414 1253.91 190.462C1254.92 190.593 1255.9 190.738 1256.92 190.918C1257.35 191.001 1257.78 191.07 1258.22 191.166C1259.38 191.422 1260.51 191.705 1261.64 192.05C1261.82 192.112 1262.04 192.154 1262.24 192.195C1266.26 193.489 1270.1 195.307 1273.64 197.602C1273.89 197.761 1274.13 197.906 1274.38 198.078C1275.47 198.817 1276.54 199.618 1277.58 200.454C1277.83 200.654 1278.07 200.882 1278.32 201.103C1280.18 202.688 1281.92 204.412 1283.52 206.261L1284.22 207.034C1285.05 208.063 1285.87 209.126 1286.63 210.211C1286.76 210.404 1286.87 210.618 1287.01 210.818C1287.63 211.737 1288.21 212.676 1288.76 213.629C1288.95 213.988 1289.15 214.347 1289.34 214.713C1289.82 215.596 1290.26 216.487 1290.64 217.385C1290.78 217.737 1290.97 218.068 1291.11 218.4C1291.18 218.574 1291.25 218.752 1291.31 218.932C1291.38 219.014 1291.39 219.083 1291.43 219.166C1291.63 219.719 1291.83 220.278 1292 220.844C1292.19 221.417 1292.43 221.984 1292.63 222.571C1292.86 223.385 1293.07 224.228 1293.27 225.063C1293.42 225.65 1293.61 226.223 1293.7 226.817C1293.9 227.742 1294.04 228.702 1294.14 229.655C1294.23 230.159 1294.34 230.663 1294.39 231.181C1294.54 232.673 1294.61 234.171 1294.61 235.676V242.782C1295.58 242.761 1296.64 242.713 1297.69 242.678V242.678ZM1092.57 239.308C1092.54 238.404 1092.54 237.513 1092.5 236.615C1092.47 235.984 1092.42 235.354 1092.37 234.723L1092.25 232.942L1092.19 232.086V232.079C1092.12 231.381 1092.04 230.705 1091.98 230.014V229.966C1091.88 229.151 1091.79 228.329 1091.68 227.521V227.501C1091.59 226.872 1091.5 226.244 1091.38 225.629C1091.38 225.574 1091.38 225.533 1091.37 225.491C1091.3 225.009 1091.23 224.528 1091.14 224.048C1091.07 223.689 1091.03 223.33 1090.98 222.964C1090.98 222.964 1090.96 222.957 1090.96 222.943C1090.87 222.377 1090.75 221.832 1090.65 221.272L1090.58 221.003C1090.51 220.644 1090.43 220.278 1090.36 219.926C1090.25 219.436 1090.17 218.952 1090.05 218.462V218.428C1089.9 217.806 1089.74 217.178 1089.6 216.549L1089.25 215.224C1089.13 214.816 1089.06 214.416 1088.95 214.015C1088.93 214.008 1088.93 213.994 1088.93 213.988L1088.47 212.365C1088.44 212.289 1088.44 212.22 1088.42 212.151C1088.26 211.626 1088.08 211.087 1087.93 210.57C1087.81 210.252 1087.73 209.927 1087.64 209.624V209.617C1087.44 209.009 1087.24 208.401 1087.03 207.801C1087.18 208.236 1087.32 208.678 1087.46 209.126C1087.32 208.678 1087.19 208.236 1087.03 207.794L1086.15 205.349C1085.93 204.756 1085.71 204.162 1085.47 203.561C1085.45 203.554 1085.44 203.533 1085.44 203.506C1085.18 202.884 1084.92 202.235 1084.65 201.607C1084.6 201.469 1084.54 201.351 1084.51 201.227C1084.22 200.564 1083.95 199.908 1083.64 199.245C1083.53 198.997 1083.42 198.762 1083.29 198.513L1083.01 197.878C1082.33 196.438 1081.62 195.015 1080.87 193.611L1080.44 192.768C1080.36 192.623 1080.3 192.499 1080.23 192.361C1079.31 190.642 1078.32 188.951 1077.29 187.293C1077.15 187.058 1076.98 186.83 1076.82 186.595C1075.93 185.165 1074.99 183.763 1074.01 182.39C1073.87 182.19 1073.74 181.983 1073.58 181.789L1073.07 181.092C1072.05 179.675 1070.98 178.296 1069.87 176.956C1069.75 176.78 1069.61 176.609 1069.48 176.445C1068.23 174.969 1066.95 173.53 1065.62 172.129V172.115C1064.36 170.804 1063.06 169.517 1061.75 168.255C1061.58 168.11 1061.42 167.952 1061.28 167.813L1061.26 167.786C1060.87 167.441 1060.51 167.095 1060.15 166.75C1058.72 165.468 1057.27 164.225 1055.78 163.021H1055.76L1054.99 162.434C1054.91 162.372 1054.83 162.303 1054.73 162.248C1053.51 161.289 1052.26 160.368 1050.98 159.486C1049.03 158.142 1047.03 156.855 1045 155.626C1044.91 155.592 1044.84 155.522 1044.76 155.481L1044.49 155.329C1040.92 153.265 1037.21 151.454 1033.39 149.909C1033.25 149.853 1033.13 149.784 1032.98 149.743C1030.79 148.855 1028.57 148.046 1026.32 147.319C1025.88 147.174 1025.41 147.05 1024.97 146.912L1024.94 146.898C1024.49 146.76 1023.99 146.65 1023.52 146.511C1022.4 146.181 1021.28 145.875 1020.15 145.593C1020.07 145.572 1019.99 145.565 1019.91 145.538C1019.43 145.42 1018.94 145.296 1018.45 145.186C1017.92 145.061 1017.36 144.992 1016.82 144.861C1015.27 144.537 1013.76 144.198 1012.16 143.963V143.901H1012.11C1011.98 143.887 1011.87 143.881 1011.74 143.853C1009.34 143.507 1006.93 143.238 1004.51 143.045C1004.33 143.038 1004.15 143.017 1003.97 143.004C1003.28 142.955 1002.56 142.948 1001.86 142.893C1000.6 142.831 999.347 142.748 998.063 142.741C997.607 142.734 997.138 142.707 996.689 142.707H995.743L994.3 142.721C989.031 142.902 983.777 143.386 978.563 144.171L978.163 144.226C975.601 144.606 973.012 145.041 970.436 145.538H970.374L970.098 145.6C967.888 146.028 965.672 146.511 963.476 147.009L962.371 147.236H962.364L961.977 147.333C958.416 148.158 954.875 149.067 951.357 150.061C951.295 150.088 951.233 150.102 951.199 150.13C949.617 150.565 948.071 151.027 946.558 151.497C946.496 151.504 946.441 151.524 946.386 151.538L946.116 151.635C944.535 152.111 942.975 152.622 941.462 153.126C941.262 153.189 941.055 153.271 940.848 153.34C940.33 153.499 939.819 153.693 939.294 153.865L938.548 154.114C938.252 154.217 937.955 154.321 937.665 154.438C936.997 154.66 936.334 154.895 935.676 155.143C935.704 155.978 935.759 156.758 935.787 157.546L935.8 157.856C935.828 158.222 935.842 158.581 935.856 158.934C935.911 159.762 935.952 160.584 935.987 161.385C936.097 163.229 936.173 164.962 936.284 166.681L936.581 171.922V172.032C936.633 172.805 936.677 173.579 936.712 174.353L936.774 175.513C936.781 175.803 936.808 176.086 936.822 176.369C936.85 176.845 936.878 177.349 936.891 177.86C936.905 178.054 936.919 178.233 936.919 178.433L937.023 180.408C937.05 180.802 937.064 181.202 937.085 181.603C937.098 181.996 937.126 182.369 937.133 182.777C937.154 183.15 937.161 183.522 937.188 183.902L937.243 185.2C937.264 185.608 937.271 186.001 937.299 186.423L937.361 187.914C937.375 188.294 937.395 188.674 937.402 189.067C937.444 189.972 937.471 190.911 937.506 191.884L940.427 191.698C941.228 191.65 942.036 191.588 942.871 191.553C944.162 191.449 945.447 191.387 946.752 191.284L951.592 190.932L954.237 190.752L970.705 189.509C971.465 189.461 972.224 189.392 972.97 189.35L978.446 188.95C979.696 188.86 980.89 188.791 982.119 188.708C983.487 188.612 984.847 188.529 986.173 188.453C987.747 188.342 989.245 188.273 990.771 188.19C991.752 188.142 992.739 188.066 993.699 188.031C996.15 187.914 998.553 187.811 1000.87 187.741H1000.27C1002.64 187.488 1005.02 187.359 1007.4 187.355C1008.98 187.355 1010.47 187.431 1011.94 187.548C1012.32 187.583 1012.67 187.61 1013.05 187.666C1014.47 187.801 1015.88 188.004 1017.28 188.273C1018.58 188.536 1019.84 188.867 1021.06 189.247C1021.4 189.357 1021.71 189.44 1022.02 189.551C1023.19 189.944 1024.32 190.358 1025.4 190.849C1025.46 190.863 1025.5 190.89 1025.55 190.911C1026.63 191.401 1027.65 191.967 1028.64 192.561L1029.44 193.045C1030.39 193.638 1031.29 194.267 1032.15 194.943L1032.29 195.061C1033.18 195.772 1033.97 196.518 1034.76 197.291C1034.98 197.526 1035.19 197.733 1035.4 197.975C1036.19 198.809 1036.94 199.678 1037.65 200.578C1038.31 201.441 1038.91 202.359 1039.52 203.305C1039.67 203.582 1039.85 203.858 1040.01 204.141C1040.52 205.039 1041.03 205.971 1041.49 206.91C1041.56 207.048 1041.62 207.158 1041.67 207.29C1042.02 208.042 1042.37 208.836 1042.68 209.617L1042.7 209.7C1042.74 209.824 1042.77 209.948 1042.83 210.093C1043.99 213.118 1044.87 216.356 1045.44 219.746C1045.54 220.257 1045.6 220.755 1045.69 221.286C1045.87 222.557 1046.02 223.848 1046.14 225.16C1046.18 225.678 1046.25 226.196 1046.29 226.741C1046.43 228.53 1046.49 230.339 1046.49 232.189V269.483C1045.89 269.326 1045.3 269.158 1044.71 268.979C1044.33 268.876 1043.97 268.786 1043.58 268.662L1043 268.517C1042.77 268.455 1042.55 268.386 1042.29 268.33L1042.25 268.323C1041.95 268.237 1041.66 268.159 1041.36 268.089C1041.03 267.999 1040.72 267.937 1040.39 267.854C1040.28 267.824 1040.16 267.792 1040.05 267.757C1039.71 267.674 1039.36 267.612 1039.05 267.509L1038.78 267.446C1038.44 267.369 1038.1 267.286 1037.75 267.198C1037.41 267.131 1037.06 267.051 1036.72 266.956C1036.3 266.868 1035.89 266.776 1035.47 266.68H1035.45C1035.08 266.597 1034.72 266.535 1034.33 266.445C1033.93 266.376 1033.55 266.3 1033.13 266.217V266.21C1032.71 266.121 1032.31 266.052 1031.88 265.969C1031.49 265.886 1031.11 265.831 1030.73 265.762L1029.35 265.527C1029 265.465 1028.65 265.41 1028.3 265.361L1027.75 265.285C1027.41 265.234 1027.08 265.181 1026.74 265.126C1026.42 265.092 1026.11 265.051 1025.79 265.002L1025.77 264.995L1025.53 264.974C1025.02 264.895 1024.51 264.828 1024 264.774L1023.2 264.684L1022.44 264.602C1022.02 264.546 1021.61 264.484 1021.16 264.457L1020.57 264.401H1020.56C1019.76 264.324 1018.96 264.253 1018.16 264.187C1018.09 264.187 1018.03 264.187 1017.96 264.167H1017.94C1016.77 264.056 1015.53 264.001 1014.29 263.932C1013.79 263.91 1013.3 263.882 1012.81 263.849L1012.73 263.842C1011.91 263.808 1011.04 263.759 1010.16 263.738L1010.08 263.732C1009.66 263.725 1009.28 263.683 1008.84 263.683C1007.87 263.657 1006.89 263.632 1005.92 263.607L1005.02 263.6H1004.89L1004.75 263.593H1004.24C1004.05 263.58 1003.84 263.58 1003.65 263.58C1002.76 263.571 1001.87 263.567 1000.98 263.566H1000.84C1000.29 263.566 999.734 263.593 999.182 263.6C998.112 263.607 997.027 263.628 995.95 263.669H995.895C995.741 263.667 995.586 263.672 995.432 263.683C994.839 263.697 994.259 263.752 993.678 263.801H993.637L991.02 263.946H991.013C990.723 263.966 990.426 264.008 990.129 264.035C989.66 264.056 989.183 264.132 988.721 264.167C988.251 264.215 987.775 264.277 987.284 264.312C986.935 264.359 986.585 264.401 986.235 264.436L984.612 264.657L983.977 264.726C983.466 264.795 982.941 264.885 982.416 264.974C982.133 265.023 981.836 265.05 981.553 265.113H981.532L979.378 265.472H979.371C978.943 265.561 978.529 265.651 978.101 265.727C977.693 265.831 977.286 265.893 976.885 265.976C976.851 265.99 976.83 265.99 976.789 265.99C976.147 266.128 975.511 266.252 974.904 266.404L974.89 266.411C974.289 266.549 973.709 266.708 973.122 266.839C972.77 266.94 972.415 267.032 972.059 267.115L971.962 267.143C971.201 267.328 970.446 267.535 969.697 267.764C968.627 268.068 967.55 268.386 966.5 268.731C965.92 268.91 965.382 269.138 964.815 269.318C964.788 269.318 964.753 269.338 964.719 269.345C963.959 269.608 963.172 269.884 962.412 270.16L962.385 270.181C961.795 270.391 961.212 270.622 960.638 270.871C960.631 270.871 960.61 270.871 960.596 270.892C959.871 271.182 959.139 271.465 958.421 271.79H958.407L956.736 272.536L956.695 272.556C956.681 272.556 956.667 272.556 956.66 272.57L955.79 272.977L954.589 273.551C954.562 273.556 954.537 273.565 954.513 273.578C953.988 273.854 953.457 274.103 952.918 274.386L952.897 274.393L951.855 274.959L950.798 275.525C950.764 275.539 950.736 275.567 950.694 275.581C950.232 275.843 949.755 276.098 949.307 276.368H949.279L947.387 277.521C947.214 277.645 947.014 277.749 946.841 277.866C946.49 278.057 946.149 278.267 945.82 278.495L945.813 278.508C944.687 279.226 943.596 279.965 942.519 280.739H942.498C942.16 280.973 941.835 281.243 941.497 281.484C941.456 281.512 941.414 281.54 941.366 281.588C940.661 282.106 939.985 282.617 939.301 283.169C939.287 283.19 939.273 283.19 939.26 283.204C938.866 283.515 938.493 283.839 938.1 284.15L938.031 284.219C937.409 284.73 936.815 285.241 936.208 285.766C936.18 285.786 936.173 285.814 936.146 285.828C935.766 286.152 935.4 286.511 935.027 286.843C934.412 287.381 933.817 287.943 933.245 288.528C933.218 288.548 933.197 288.562 933.176 288.597C932.824 288.935 932.465 289.273 932.134 289.632L932.072 289.674L930.566 291.255C930.495 291.325 930.43 291.401 930.373 291.483L930.262 291.587L929.399 292.519L929.365 292.56C928.695 293.313 928.053 294.093 927.397 294.86C927.335 294.956 927.252 295.039 927.176 295.129C927.061 295.282 926.939 295.43 926.81 295.571C925.988 296.6 925.194 297.663 924.414 298.713L924.379 298.754L923.944 299.389L923.799 299.59C923.699 299.728 923.605 299.871 923.516 300.018C923.054 300.687 922.591 301.316 922.156 302.006C922.149 302.006 922.142 302.027 922.128 302.027C921.9 302.4 921.693 302.745 921.459 303.07C921.431 303.125 921.403 303.166 921.389 303.215C920.941 303.933 920.485 304.658 920.05 305.39L920.008 305.459C919.794 305.852 919.567 306.239 919.339 306.64C919.318 306.653 919.311 306.681 919.297 306.716C918.869 307.46 918.463 308.218 918.082 308.987H918.068L918.034 309.056C917.826 309.45 917.612 309.844 917.412 310.244L917.384 310.313L917.288 310.52L918.337 312.723C918.31 312.744 918.296 312.813 918.268 312.854C918.116 313.213 917.937 313.565 917.785 313.904C917.335 314.937 916.902 315.977 916.487 317.025L916.404 317.17L916.218 317.619C916.218 317.653 916.218 317.653 916.204 317.681C915.72 318.965 915.244 320.263 914.802 321.575H914.795C914.733 321.741 914.691 321.934 914.629 322.1L914.567 322.314C914.436 322.721 914.319 323.122 914.194 323.543C913.994 324.185 913.773 324.841 913.601 325.49L913.587 325.525C913.469 325.863 913.4 326.229 913.304 326.581C913.286 326.623 913.275 326.667 913.269 326.713C913.262 326.726 913.262 326.768 913.248 326.789C913.103 327.334 912.965 327.921 912.813 328.453L912.544 329.544L912.53 329.571L912.219 330.952L912.213 331.014C912.109 331.456 912.033 331.933 911.93 332.361L911.709 333.397C911.557 334.301 911.384 335.206 911.26 336.097C911.137 336.78 911.029 337.466 910.935 338.154C910.79 339.121 910.68 340.101 910.562 341.061C910.493 341.731 910.417 342.359 910.355 343.015C910.245 344.106 910.189 345.197 910.114 346.323C910.079 346.861 910.024 347.4 909.996 347.966C909.913 349.63 909.886 351.301 909.886 353V382.057C909.886 383.879 909.941 385.668 910.038 387.449C910.072 388.016 910.127 388.568 910.183 389.148C910.279 390.398 910.397 391.634 910.542 392.884L910.776 394.748C910.949 395.963 911.156 397.192 911.377 398.408C911.474 398.953 911.564 399.478 911.681 400.017C912.012 401.743 912.399 403.448 912.827 405.147L912.945 405.451C913.352 407.032 913.822 408.606 914.312 410.16C914.484 410.699 914.685 411.23 914.864 411.762C915.251 412.895 915.644 414.013 916.079 415.104C916.307 415.684 916.535 416.264 916.791 416.858C917.226 417.949 917.716 419.04 918.199 420.103C918.434 420.628 918.655 421.132 918.904 421.65C919.622 423.183 920.395 424.681 921.21 426.173C921.258 426.249 921.32 426.332 921.369 426.449C921.403 426.532 921.465 426.594 921.507 426.67C922.301 428.12 923.143 429.501 924.006 430.896C924.324 431.393 924.642 431.904 924.966 432.394C925.705 433.513 926.472 434.618 927.259 435.723C927.556 436.151 927.859 436.6 928.177 437.014C929.227 438.45 930.331 439.852 931.478 441.198C931.768 441.571 932.085 441.903 932.389 442.262C933.287 443.297 934.219 444.326 935.151 445.321C935.572 445.776 935.994 446.232 936.415 446.653C937.423 447.661 938.438 448.676 939.474 449.678C939.785 449.94 940.068 450.237 940.378 450.513C942.086 452.089 943.86 453.591 945.695 455.015C946.752 455.851 947.85 456.652 948.934 457.446C949.389 457.784 949.859 458.136 950.322 458.454C951.813 459.462 953.318 460.477 954.851 461.43C954.969 461.499 955.038 461.548 955.121 461.575C956.619 462.493 958.145 463.343 959.692 464.144C960.161 464.413 960.638 464.655 961.121 464.876C962.405 465.539 963.697 466.174 965.002 466.747C965.423 466.933 965.823 467.148 966.245 467.313C967.957 468.045 969.683 468.749 971.437 469.419C971.72 469.495 972.017 469.585 972.314 469.702C973.813 470.213 975.339 470.724 976.858 471.187C977.341 471.332 977.831 471.463 978.322 471.615C979.903 472.05 981.526 472.451 983.155 472.81C983.39 472.879 983.618 472.948 983.866 472.996C985.758 473.403 987.664 473.721 989.598 474.004C989.998 474.053 990.378 474.115 990.778 474.149C992.36 474.363 993.948 474.536 995.55 474.646C995.992 474.695 996.468 474.722 996.917 474.771C1017.78 476.164 1038.49 470.275 1055.5 458.109C1067.21 449.761 1076.84 438.822 1083.63 426.145C1090.88 412.561 1094.66 397.398 1094.65 382.001V241.042C1094.7 240.448 1094.67 239.888 1094.67 239.308H1092.57ZM961.832 406.052C961.522 405.541 961.259 405.03 960.969 404.505C960.824 404.249 960.672 403.994 960.534 403.718C959.93 402.56 959.373 401.378 958.863 400.175C958.739 399.906 958.656 399.637 958.545 399.368C958.15 398.364 957.79 397.346 957.468 396.315C957.351 395.963 957.24 395.625 957.123 395.307C956.752 394.034 956.432 392.746 956.163 391.447C956.108 391.192 956.08 390.957 956.025 390.688C955.817 389.592 955.653 388.489 955.535 387.38L955.397 386.117C955.285 384.835 955.225 383.55 955.217 382.264L955.203 381.981V347.6C955.171 341.602 956.326 335.656 958.6 330.106C960.874 324.555 964.223 319.509 968.454 315.257C972.704 311.019 977.75 307.665 983.302 305.387C988.855 303.109 994.803 301.953 1000.8 301.986H1046.41V381.96C1046.41 387.263 1045.47 392.359 1043.87 397.089C1038.22 413.702 1023.55 426.049 1005.51 427.892C1003.94 428.059 1002.37 428.142 1000.79 428.141C999.06 428.13 997.331 428.021 995.612 427.816C994.263 427.678 992.922 427.475 991.593 427.209L991.269 427.119C990.04 426.857 988.825 426.532 987.63 426.145C987.553 426.145 987.478 426.129 987.409 426.097L986.739 425.883C985.328 425.432 983.941 424.912 982.582 424.322C981.501 423.854 980.443 423.333 979.413 422.762C979.157 422.617 978.888 422.506 978.646 422.341C977.517 421.709 976.413 421.032 975.339 420.311C975.166 420.166 975 420.069 974.821 419.924C973.88 419.275 972.968 418.586 972.086 417.859C971.886 417.68 971.658 417.507 971.458 417.334C970.471 416.505 969.526 415.627 968.627 414.704C968.461 414.559 968.289 414.345 968.123 414.165C967.336 413.363 966.583 412.529 965.865 411.665C965.713 411.479 965.54 411.251 965.388 411.092C964.591 410.084 963.833 409.046 963.117 407.978C962.965 407.73 962.799 407.509 962.64 407.253C962.385 406.846 962.109 406.452 961.867 406.024C961.846 406.079 961.846 406.065 961.832 406.052V406.052ZM849.784 239.198C849.777 237.679 849.729 236.174 849.653 234.661L849.646 234.613C849.618 234.033 849.563 233.453 849.522 232.866L849.508 232.686C849.438 231.615 849.351 230.544 849.245 229.476C849.239 229.455 849.225 229.427 849.225 229.4C849.163 228.737 849.08 228.088 849.004 227.411C849.003 227.367 848.998 227.323 848.99 227.28C848.859 226.279 848.741 225.298 848.569 224.304L848.562 224.228L848.52 223.972C848.417 223.372 848.327 222.757 848.21 222.156V222.094C848.03 221.119 847.841 220.145 847.644 219.173C847.644 219.139 847.643 219.118 847.63 219.097C847.533 218.662 847.45 218.22 847.347 217.792L847.202 217.081C847.181 217.074 847.181 217.053 847.174 217.033C846.932 216.004 846.698 214.968 846.414 213.946L846.38 213.801C846.235 213.249 846.097 212.683 845.945 212.137C845.945 212.116 845.945 212.109 845.931 212.096C845.517 210.618 845.068 209.14 844.591 207.683L844.571 207.607C844.488 207.366 844.405 207.117 844.308 206.868L844.301 206.855C843.898 205.662 843.467 204.479 843.01 203.305C842.907 203.064 842.831 202.794 842.734 202.546V202.539C842.603 202.249 842.492 201.966 842.368 201.676C842.264 201.455 842.189 201.234 842.085 200.992C841.654 199.932 841.207 198.877 840.745 197.83L840.317 196.925C839.465 195.092 838.567 193.28 837.624 191.491C837.528 191.339 837.459 191.18 837.369 191.028C836.651 189.682 835.857 188.37 835.076 187.065C834.883 186.74 834.696 186.402 834.496 186.077V186.064C834.434 185.96 834.372 185.877 834.324 185.78C834.175 185.562 834.03 185.341 833.889 185.118C833.53 184.531 833.143 183.978 832.763 183.412L832.314 182.756C832.211 182.59 832.121 182.438 832.01 182.28C831.762 181.914 831.534 181.555 831.279 181.195C830.985 180.762 830.683 180.334 830.374 179.911L830.36 179.904C829.254 178.357 828.098 176.847 826.894 175.375L826.866 175.34C825.679 173.89 824.429 172.502 823.172 171.135C823.165 171.128 823.158 171.107 823.131 171.1C822.941 170.888 822.747 170.678 822.551 170.472L822.081 169.975V169.968C821.008 168.836 819.905 167.733 818.773 166.66V166.653C818.504 166.412 818.256 166.142 817.993 165.901C816.611 164.636 815.197 163.407 813.753 162.213C813.413 161.952 813.075 161.687 812.738 161.419C811.539 160.466 810.319 159.538 809.079 158.637C808.692 158.367 808.34 158.098 807.96 157.836C806.404 156.763 804.818 155.736 803.203 154.756C803.051 154.652 802.892 154.583 802.754 154.487C801.269 153.62 799.763 152.788 798.238 151.994C797.817 151.773 797.395 151.566 796.96 151.352C795.358 150.558 793.732 149.812 792.085 149.115C791.968 149.08 791.885 149.025 791.775 148.977C789.998 148.256 788.2 147.591 786.382 146.981C786.209 146.912 786.016 146.864 785.843 146.808C785.615 146.746 785.401 146.67 785.18 146.615C783.641 146.123 782.087 145.678 780.52 145.282L779.967 145.137L779.442 144.992C777.545 144.537 775.631 144.152 773.704 143.839L772.862 143.715C770.728 143.381 768.581 143.137 766.426 142.983L766.067 142.969C764.688 142.866 763.307 142.802 761.924 142.776C761.413 142.762 760.916 142.741 760.398 142.741H760.039H759.77C758.361 142.748 756.89 142.769 755.357 142.81H755.316L755.005 142.824H754.991L754.508 142.845H754.197L754.177 142.852C752.698 142.885 751.22 142.947 749.744 143.038L749.461 143.052L749.191 143.066H749.129L749.088 143.073C747.312 143.162 745.537 143.272 743.764 143.404L743.681 143.411L743.66 143.418H743.577L740.809 143.667L743.543 143.418C743.481 143.418 743.398 143.418 743.322 143.432C742.847 143.466 742.373 143.51 741.9 143.563C740.767 143.653 739.621 143.763 738.482 143.887H738.399L738.24 143.901C738.042 143.923 737.844 143.941 737.646 143.957H737.598L733.938 144.392C733.268 144.474 732.612 144.537 731.956 144.613C731.929 144.626 731.901 144.626 731.887 144.64C731.818 144.647 731.756 144.647 731.708 144.661C731.003 144.751 730.327 144.854 729.643 144.965C728.469 145.123 727.288 145.289 726.142 145.483C726.128 145.483 726.115 145.503 726.108 145.503C725.61 145.572 725.127 145.662 724.644 145.759C724.293 145.834 723.941 145.901 723.587 145.959C722.6 146.145 721.619 146.311 720.68 146.511V146.518H720.646C719.058 146.857 717.478 147.235 715.909 147.651H715.881L715.584 147.727C715.516 147.747 715.447 147.766 715.377 147.782H715.356C714.383 148.044 713.444 148.321 712.546 148.604L712.408 148.645V7.69913H665.039V471.387H712.401V194.239H757.422L757.829 194.253C759.114 194.267 760.364 194.336 761.62 194.446C762.104 194.481 762.594 194.55 763.077 194.598C764.01 194.716 764.949 194.847 765.86 195.026C767.411 195.31 768.948 195.665 770.466 196.09C770.735 196.166 771.011 196.235 771.267 196.318C772.558 196.711 773.78 197.153 775.002 197.65C775.41 197.802 775.79 197.989 776.197 198.161C777.053 198.541 777.896 198.928 778.724 199.363C779.152 199.563 779.553 199.791 779.967 200.012C780.851 200.495 781.714 201.006 782.556 201.552C782.84 201.724 783.137 201.897 783.406 202.076C784.49 202.801 785.553 203.582 786.568 204.383L787.376 205.094C788.129 205.729 788.875 206.371 789.565 207.041L790.518 207.994C791.215 208.678 791.865 209.396 792.5 210.141C792.735 210.418 792.99 210.68 793.218 210.963C794.053 211.971 794.847 213.007 795.593 214.084L796.077 214.823C796.643 215.686 797.195 216.577 797.706 217.482L798.355 218.655C798.79 219.491 799.205 220.34 799.598 221.217C799.771 221.597 799.95 221.956 800.109 222.35C800.178 222.495 800.254 222.646 800.302 222.792C800.542 223.411 800.763 224.037 800.965 224.67C801.179 225.27 801.407 225.871 801.607 226.493C801.884 227.363 802.077 228.253 802.312 229.151C802.443 229.69 802.595 230.228 802.719 230.781C802.919 231.858 803.078 232.956 803.203 234.061C803.265 234.454 803.348 234.834 803.382 235.228C803.534 236.754 803.617 238.28 803.617 239.847V471.408H849.791V239.84C849.798 239.626 849.791 239.405 849.784 239.198V239.198ZM609.336 233.95V233.888C609.327 232.601 609.29 231.314 609.226 230.028V229.745C609.22 229.636 609.211 229.528 609.198 229.42C609.164 228.82 609.102 228.212 609.06 227.597L609.053 227.563C608.97 226.513 608.908 225.443 608.791 224.421V224.414C608.708 223.641 608.604 222.888 608.501 222.136V222.115C608.363 221.114 608.245 220.133 608.087 219.153C607.976 218.455 607.845 217.792 607.727 217.116C607.707 217.024 607.691 216.932 607.679 216.839V216.832C607.51 215.879 607.329 214.929 607.134 213.981L606.705 212.096L606.609 211.681H606.602L606.264 210.314C606.146 209.845 606.043 209.375 605.918 208.905L605.594 207.766C605.476 207.386 605.387 207.007 605.276 206.634C605.014 205.722 604.731 204.818 604.448 203.913C603.925 202.268 603.352 200.64 602.728 199.031C602.452 198.306 602.183 197.595 601.879 196.87C601.527 195.997 601.156 195.131 600.767 194.274C600.556 193.774 600.335 193.279 600.104 192.789L599.697 191.891C599.531 191.505 599.338 191.132 599.151 190.759C598.613 189.647 598.047 188.542 597.473 187.451C597.356 187.237 597.259 187.016 597.142 186.802H597.149C596.384 185.425 595.601 184.058 594.801 182.701L594.421 182.107C593.823 181.126 593.206 180.157 592.571 179.2C592.357 178.875 592.136 178.53 591.901 178.199C591.557 177.692 591.202 177.192 590.838 176.7C589.519 174.809 588.133 172.967 586.681 171.176V171.169C586.432 170.872 586.184 170.582 585.935 170.272C585.217 169.402 584.471 168.545 583.726 167.696L583.719 167.682C583.56 167.503 583.394 167.309 583.235 167.144L583 166.867C582.676 166.502 582.331 166.156 581.992 165.811C581.329 165.1 580.68 164.382 580.004 163.698L579.879 163.581C579.769 163.463 579.652 163.374 579.541 163.249C578.658 162.364 577.758 161.496 576.841 160.646L575.93 159.824C575.276 159.239 574.615 158.662 573.948 158.091L573.23 157.463L573.223 157.456C573.016 157.297 572.822 157.111 572.622 156.938H572.615C571.842 156.289 571.041 155.681 570.268 155.067C569.908 154.791 569.549 154.494 569.19 154.224C568.936 154.032 568.681 153.841 568.424 153.651L568.403 153.637C567.478 152.947 566.532 152.277 565.579 151.621L565.572 151.607L564.592 150.931V150.924C563.445 150.171 562.292 149.405 561.111 148.686L561.098 148.68C561.042 148.632 560.982 148.59 560.918 148.555L560.911 148.548C560.014 148.003 559.102 147.485 558.184 146.967C557.825 146.76 557.466 146.532 557.107 146.339L557.1 146.325C556.838 146.194 556.58 146.056 556.326 145.911C556.243 145.876 556.181 145.828 556.105 145.786L554.476 144.951C553.999 144.695 553.53 144.44 553.039 144.205L553.026 144.198C552.853 144.115 552.687 144.039 552.522 143.95C552.37 143.867 552.204 143.791 552.045 143.715C550.954 143.19 549.842 142.693 548.738 142.196C548.503 142.092 548.268 141.968 548.019 141.864L547.84 141.795L547.674 141.733L547.653 141.726C547.633 141.699 547.612 141.699 547.598 141.692H547.591L547.584 141.678H547.578C546.368 141.175 545.15 140.692 543.925 140.228V140.221L542.758 139.8H542.737C541.617 139.383 540.487 138.996 539.347 138.64L539.333 138.633C539.043 138.522 538.76 138.439 538.47 138.343C537.21 137.951 535.941 137.587 534.665 137.252C534.499 137.217 534.347 137.155 534.175 137.114C533.878 137.031 533.567 136.962 533.27 136.886H533.256C533.029 136.817 532.801 136.775 532.566 136.72C531.621 136.495 530.676 136.276 529.728 136.064C529.521 136.016 529.3 135.974 529.1 135.919L528.478 135.795H528.471C526.045 135.311 523.601 134.92 521.145 134.621H521.11C518.99 134.34 516.859 134.144 514.723 134.034C514.475 134.013 514.24 133.979 514.005 133.965L513.556 133.958L513.46 133.951C512.852 133.917 512.231 133.917 511.63 133.896C510.663 133.868 509.71 133.82 508.744 133.82C507.784 133.82 506.831 133.861 505.871 133.896H505.823L505.36 133.91C504.987 133.91 504.635 133.923 504.262 133.93L503.427 133.958C502.488 134.006 501.569 134.103 500.651 134.165L500.533 134.172C499.974 134.207 499.422 134.262 498.869 134.303L498.275 134.352C497.274 134.462 496.301 134.6 495.313 134.738C494.602 134.828 493.877 134.89 493.186 135.008C492.178 135.159 491.191 135.353 490.197 135.546L488.933 135.767L488.166 135.905H488.16C487.455 136.05 486.758 136.23 486.06 136.395L485.411 136.541C484.685 136.689 483.962 136.855 483.243 137.038C482.283 137.3 481.351 137.576 480.384 137.852C480.322 137.873 480.253 137.887 480.198 137.915C479.611 138.08 479.017 138.239 478.444 138.419L478.43 138.426L478.14 138.522C477.408 138.757 476.676 139.026 475.945 139.268L475.434 139.441L473.873 139.965C473.824 139.987 473.773 140.003 473.721 140.014L472.312 140.58L471.442 140.932L470.731 141.215C470.2 141.429 469.661 141.623 469.129 141.85H469.115C468.867 141.959 468.621 142.072 468.377 142.189C467.797 142.451 467.196 142.714 466.609 142.997C466.422 143.073 466.229 143.149 466.05 143.245C465.594 143.459 465.104 143.66 464.662 143.874V143.881C463.879 144.259 463.105 144.658 462.342 145.075C462.093 145.213 461.844 145.331 461.589 145.469L460.298 146.125L460.263 146.145C459.718 146.449 459.179 146.781 458.634 147.085C458.163 147.351 457.696 147.622 457.232 147.899C456.845 148.127 456.445 148.341 456.065 148.576L456.044 148.59C455.595 148.873 455.146 149.163 454.711 149.453L454.636 149.494L454.29 149.715L452.93 150.578C452.612 150.806 452.274 151 451.963 151.221L451.936 151.241C451.403 151.606 450.876 151.979 450.354 152.36C449.83 152.733 449.305 153.092 448.794 153.472L447.993 154.038L447.965 154.072C447.827 154.169 447.71 154.273 447.579 154.369C447.42 154.501 447.247 154.632 447.081 154.777C446.329 155.35 445.59 155.93 444.858 156.531C444.637 156.71 444.402 156.883 444.188 157.062C444.171 157.071 444.154 157.083 444.14 157.097L444.133 157.104L444.009 157.214L443.401 157.732C442.6 158.43 441.799 159.106 440.998 159.817C440.846 159.969 440.667 160.101 440.515 160.252L440.466 160.301L440.308 160.446C439.293 161.392 438.298 162.331 437.318 163.318L437.007 163.622C436.517 164.112 436.04 164.63 435.557 165.141C435.301 165.438 435.018 165.721 434.756 166.011C434.48 166.301 434.197 166.584 433.927 166.881C433.844 166.964 433.762 167.033 433.679 167.137C432.753 168.159 431.876 169.243 430.986 170.299L430.979 170.306C430.943 170.355 430.901 170.399 430.855 170.437C430.599 170.741 430.33 171.038 430.088 171.349L429.674 171.846C428.949 172.751 428.272 173.703 427.582 174.615C427.043 175.333 426.477 176.037 425.952 176.776C424.889 178.295 423.867 179.849 422.886 181.423L422.548 181.927L422.099 182.728C421.768 183.26 421.477 183.812 421.167 184.358C420.476 185.525 419.848 186.713 419.213 187.907C419.068 188.19 418.895 188.473 418.743 188.763C418.19 189.835 417.667 190.922 417.176 192.023C416.692 193.045 416.202 194.066 415.76 195.109C414.789 197.347 413.909 199.622 413.122 201.931C412.888 202.58 412.653 203.223 412.425 203.885V203.906C412.363 204.127 412.294 204.334 412.239 204.576C411.596 206.572 411.003 208.581 410.505 210.625H410.492L410.485 210.687C408.5 218.672 407.496 226.869 407.495 235.096V374.875L407.502 375.11C407.515 377.05 407.578 378.977 407.688 380.896L407.812 382.685C407.937 384.314 408.082 385.944 408.268 387.553C408.323 387.967 408.358 388.395 408.413 388.817C408.669 390.771 408.979 392.704 409.338 394.665L409.677 396.288C409.987 397.814 410.326 399.326 410.685 400.831C410.83 401.363 410.94 401.895 411.085 402.433C411.688 404.764 412.374 407.071 413.143 409.352C413.633 410.858 414.172 412.356 414.738 413.834L415.394 415.518C416.112 417.328 416.865 419.109 417.666 420.842L417.97 421.484C418.722 423.066 419.544 424.681 420.373 426.235L420.676 426.801C420.897 427.229 421.118 427.609 421.36 428.044C421.926 429.052 422.527 430.102 423.148 431.117C423.487 431.683 423.811 432.236 424.15 432.767C425.103 434.273 426.062 435.792 427.098 437.228C427.236 437.407 427.361 437.587 427.471 437.746C428.41 439.044 429.363 440.349 430.344 441.613L431.49 443.021C432.284 443.981 433.071 444.92 433.907 445.873C434.321 446.322 434.735 446.833 435.163 447.282C436.082 448.29 437.035 449.277 437.994 450.251L438.94 451.224C440.232 452.481 441.53 453.676 442.856 454.85C443.228 455.167 443.615 455.471 443.995 455.789C445.003 456.645 446.032 457.467 447.081 458.288C447.579 458.675 448.09 459.041 448.607 459.435C449.602 460.173 450.61 460.892 451.632 461.582C453.565 462.903 455.55 464.145 457.584 465.304C457.764 465.421 457.964 465.504 458.15 465.615C459.58 466.395 461.037 467.175 462.514 467.859L464.22 468.646C465.338 469.157 466.471 469.647 467.603 470.103C468.232 470.345 468.853 470.607 469.474 470.828C470.717 471.284 471.953 471.719 473.224 472.126C473.735 472.271 474.232 472.457 474.764 472.609C476.49 473.127 478.251 473.611 480.039 474.018C480.585 474.142 481.137 474.232 481.703 474.37C483.002 474.633 484.307 474.888 485.639 475.088C486.357 475.22 487.069 475.295 487.78 475.399C489.037 475.565 490.307 475.696 491.584 475.827C492.282 475.882 492.966 475.972 493.677 476.021C495.417 476.131 497.171 476.186 498.952 476.193L499.546 476.207C502.115 476.207 504.718 476.103 507.369 475.862C510.035 475.655 512.689 475.323 515.324 474.867L576.62 465.552L581.654 464.821L580.259 428.424L579.534 408.959L579.444 406.625L579.341 404.18L579.279 402.592H508.295C507.358 402.576 506.423 402.52 505.491 402.426C505.084 402.378 504.711 402.295 504.317 402.247C503.271 402.104 502.237 401.882 501.224 401.584C501.189 401.577 501.155 401.577 501.12 401.556C500.457 401.377 499.822 401.135 499.187 400.935C498.849 400.79 498.483 400.7 498.165 400.528C497.247 400.172 496.352 399.759 495.486 399.292C495.362 399.229 495.258 399.147 495.147 399.091C494.343 398.64 493.562 398.15 492.807 397.621C492.537 397.455 492.268 397.22 491.999 397.006C491.44 396.591 490.894 396.158 490.362 395.708C490.093 395.452 489.838 395.224 489.575 394.99C489.049 394.482 488.54 393.957 488.049 393.415C487.856 393.208 487.642 392.98 487.455 392.746C486.805 391.991 486.201 391.198 485.646 390.37C485.625 390.35 485.612 390.315 485.577 390.294C485.147 389.634 484.74 388.959 484.355 388.271C484.217 388.043 484.113 387.815 483.996 387.574C483.723 387.063 483.474 386.54 483.25 386.006C483.14 385.785 483.043 385.544 482.932 385.288C482.654 384.603 482.403 383.908 482.18 383.203C482.159 383.127 482.118 383.058 482.097 382.982C481.869 382.209 481.669 381.428 481.496 380.641L481.351 379.826C481.24 379.259 481.15 378.688 481.082 378.114L480.985 377.251C480.914 376.475 480.875 375.696 480.868 374.917L480.861 374.744V342.767H572.65C577.478 342.792 582.263 341.86 586.728 340.025C591.194 338.189 595.251 335.487 598.665 332.073C602.08 328.659 604.783 324.603 606.619 320.138C608.456 315.672 609.389 310.888 609.364 306.06V234.972C609.371 234.717 609.35 234.344 609.336 233.95V233.95ZM480.861 269.442V235.082C480.861 219.691 493.29 207.255 508.695 207.255C508.84 207.255 508.992 207.276 509.137 207.283C509.814 207.283 510.47 207.317 511.126 207.386C511.457 207.414 511.789 207.469 512.113 207.511C512.61 207.58 513.114 207.656 513.598 207.745L514.592 207.946C515.089 208.07 515.593 208.194 516.077 208.346C516.36 208.429 516.657 208.491 516.94 208.595C517.672 208.836 518.397 209.106 519.108 209.41C519.315 209.499 519.515 209.596 519.723 209.7C520.247 209.934 520.765 210.183 521.269 210.452C521.545 210.611 521.815 210.756 522.077 210.915C522.771 211.336 523.455 211.773 524.128 212.227C524.598 212.565 525.06 212.924 525.502 213.283C525.675 213.428 525.861 213.546 526.027 213.711C526.635 214.209 527.208 214.74 527.767 215.306L528.202 215.769C528.616 216.204 529.01 216.646 529.403 217.102L529.914 217.744C530.417 218.396 530.898 219.064 531.358 219.746C531.758 220.354 532.145 220.989 532.497 221.638C532.545 221.701 532.58 221.77 532.621 221.832C533.001 222.557 533.36 223.316 533.691 224.09C533.767 224.262 533.83 224.449 533.892 224.642C534.044 225.029 534.223 225.415 534.354 225.816V225.83C534.423 226.016 534.479 226.223 534.548 226.417C534.631 226.7 534.7 226.983 534.803 227.266C535.033 228.111 535.236 228.963 535.411 229.821C535.528 230.422 535.604 231.029 535.687 231.651C535.834 232.784 535.912 233.926 535.922 235.069V269.428H484.01L480.861 269.442V269.442ZM377.63 12.3462L377.596 13.1265L377.617 12.3462L377.831 7.70604C377.354 7.38841 376.657 7.01553 375.814 6.61504C375.635 6.52527 375.4 6.44241 375.214 6.34574C375.421 6.44932 375.649 6.52527 375.842 6.62885C375.844 6.62885 375.847 6.62885 375.849 6.62885C375.628 6.51146 375.338 6.41479 375.096 6.29741C374.889 6.19383 374.668 6.11788 374.454 6.0143C374.357 5.97978 374.295 5.93144 374.185 5.89691C373.895 5.77953 373.577 5.64833 373.266 5.53785C372.894 5.39285 372.521 5.24784 372.113 5.10974C371.542 4.89639 370.966 4.6938 370.387 4.50209C370.339 4.49519 370.283 4.46757 370.221 4.45376C369.517 4.22589 368.764 4.00493 367.984 3.75635C367.818 3.71492 367.666 3.65968 367.494 3.61134C367.466 3.61134 367.432 3.59753 367.397 3.58372H367.383L367.224 3.54229C366.893 3.44562 366.548 3.36276 366.216 3.27299C365.995 3.21085 365.761 3.1418 365.526 3.09346L365.042 2.95536C364.884 2.90703 364.697 2.8725 364.532 2.83107L364.228 2.74821C363.672 2.60754 363.115 2.47403 362.557 2.34772H362.543L361.928 2.21652C361.252 2.07152 360.582 1.9196 359.871 1.7815L359.394 1.69174L358.856 1.59507C358.276 1.48459 357.682 1.37411 357.074 1.27053H357.067C356.915 1.24291 356.743 1.2291 356.591 1.19457C356.534 1.19266 356.479 1.18338 356.425 1.16695C355.672 1.05647 354.913 0.932182 354.139 0.835511H354.119L353.532 0.759556C353.477 0.752651 353.428 0.752651 353.387 0.738841L353.352 0.731936L353.166 0.72503C352.467 0.630751 351.768 0.547879 351.067 0.476449H351.06C350.784 0.435018 350.5 0.421208 350.217 0.400493C349.436 0.31887 348.653 0.252109 347.87 0.200247L347.379 0.172626L346.806 0.138101H346.737C346.024 0.0917116 345.311 0.0525809 344.597 0.0207152L343.878 0.00690505H343.443L343.202 0H343.195C342.504 0.0207152 341.814 0 341.103 0C339.521 0 337.954 0.0483354 336.387 0.131196L335.744 0.179531L334.86 0.255487C333.797 0.312668 332.735 0.404785 331.677 0.531689C331.083 0.586929 330.51 0.66979 329.923 0.731936C328.352 0.928969 326.786 1.17074 325.228 1.45697C324.247 1.62959 323.267 1.83674 322.286 2.0439C321.748 2.16819 321.189 2.27176 320.65 2.40296C319.538 2.65845 318.433 2.95536 317.335 3.25918C316.939 3.35306 316.546 3.45667 316.155 3.56991C314.691 4.00493 313.227 4.45376 311.791 4.95092C311.37 5.09593 310.948 5.26165 310.534 5.41356C309.512 5.77953 308.49 6.1455 307.482 6.5598C306.916 6.77386 306.377 7.01553 305.818 7.25721C304.955 7.61627 304.092 7.99605 303.235 8.38273L301.647 9.11467C300.37 9.72922 299.12 10.3576 297.891 10.9928C297.553 11.1724 297.214 11.3381 296.883 11.5314C295.377 12.3393 293.9 13.2025 292.443 14.1001L292.408 14.107L291.131 14.9218C291.421 14.7423 291.697 14.5282 291.987 14.3625C291.697 14.5282 291.421 14.7423 291.131 14.9218C290.799 15.1221 290.489 15.343 290.164 15.5571C289.405 16.0542 288.617 16.5514 287.865 17.0624C287.437 17.3662 286.988 17.6631 286.56 17.9739C285.172 18.9751 283.805 19.9901 282.444 21.0397L282.437 21.0466C282.147 21.2676 281.878 21.5023 281.588 21.7302C281.809 21.5576 282.03 21.3504 282.272 21.1709C282.03 21.3435 281.816 21.5576 281.581 21.744C281.022 22.1859 280.504 22.6555 279.958 23.1043C279.427 23.5462 278.881 23.9743 278.363 24.4301C278.201 24.5768 278.038 24.7218 277.873 24.8651L277.065 25.5832C276.009 26.5283 274.973 27.4952 273.958 28.4833L273.178 29.2222C272.529 29.8782 271.907 30.541 271.279 31.2039L269.622 32.9233L268.531 34.1524V34.18H268.51C267.64 35.1467 266.79 36.1203 265.962 37.1285V37.1492C265.63 37.5566 265.278 37.964 264.954 38.3714C264.305 39.1586 263.704 39.9664 263.089 40.7674C262.641 41.3405 262.185 41.886 261.771 42.4661C261.676 42.5854 261.589 42.7099 261.508 42.8389C261.349 43.0599 261.177 43.2878 261.025 43.5294L260.472 44.3235C259.872 45.1798 259.271 46.0429 258.677 46.9198L258.159 47.7139C258.011 47.9226 257.87 48.1369 257.738 48.3561H257.724C256.896 49.6542 256.088 50.98 255.294 52.3127C255.169 52.5129 255.038 52.7201 254.921 52.9272V52.9341C254.044 54.4532 253.222 55.9793 252.421 57.5467C252.359 57.6641 252.29 57.7884 252.235 57.9127C252.063 58.2699 251.886 58.6244 251.703 58.9761L251.696 59.0037C251.082 60.2328 250.501 61.455 249.935 62.7117L249.928 62.7324C249.749 63.1605 249.535 63.5817 249.355 64.0029C249.183 64.431 249.024 64.8453 248.851 65.2527C248.333 66.4611 247.829 67.6626 247.367 68.8848C247.332 68.9538 247.311 69.0298 247.291 69.0989L246.911 70.1139C246.683 70.7285 246.483 71.3568 246.276 71.9645C246.027 72.6826 245.772 73.4007 245.537 74.1257C245.48 74.3057 245.429 74.4877 245.385 74.6712C245.267 74.9958 245.164 75.3272 245.06 75.6587C244.639 77.019 244.273 78.4 243.893 79.8155C243.81 80.1469 243.707 80.4784 243.61 80.8167V80.8374L243.596 80.8651L243.507 81.2448L243.603 80.8582L243.61 80.8444C243.514 81.1896 243.465 81.5279 243.382 81.8594C243.438 81.6591 243.465 81.4451 243.514 81.2448C243.068 83.0867 242.66 84.9377 242.291 86.7965C242.284 86.8725 242.264 86.9415 242.25 86.9968L242.202 87.2937C241.87 89.0476 241.587 90.8221 241.359 92.6106C241.269 93.2113 241.214 93.812 241.145 94.4335C240.984 95.7719 240.857 97.1142 240.765 98.4591C240.566 100.88 240.46 103.308 240.448 105.737L240.434 106.034V549.007L243.603 548.841L313.876 544.891V278.93H368.951V205.494H313.883V205.487H313.876V105.999C313.876 90.6081 326.305 78.1721 341.103 78.1721H374.868L377.575 13.8653L377.63 12.3462L377.831 7.69913L377.63 12.3462V12.3462ZM73.4352 15.6054V15.8057L3.16251 11.276L0 11.0688V471.408H73.4352V15.8057V15.6054Z" fill="#86B9E6"/>
<path d="M198.783 75.3202L198.776 75.1752L198.769 75.1614C198.728 74.7747 198.638 74.4088 198.604 74.0221L198.59 73.9116C198.459 72.9725 198.348 72.0403 198.155 71.122L198.141 71.046C198.037 70.5627 197.906 70.0793 197.789 69.596C197.775 69.5891 197.775 69.5752 197.775 69.5614C197.685 69.1817 197.582 68.8226 197.485 68.4497C197.381 68.0285 197.299 67.628 197.16 67.2137C197.002 66.6889 196.794 66.1572 196.615 65.6186L196.608 65.5979C196.426 65.0629 196.228 64.5332 196.014 64.0098L195.814 63.4436L195.807 63.4159L195.358 62.3871L195.324 62.3457C194.975 61.5595 194.605 60.7835 194.212 60.0187L194.198 59.9841C194.02 59.6428 193.835 59.3044 193.646 58.9691L193.639 58.9553C193.342 58.4305 193.017 57.9333 192.707 57.4223C192.486 57.0633 192.279 56.7042 192.051 56.3797L192.044 56.3521L192.03 56.3244C191.926 56.1656 191.83 55.9999 191.719 55.8411V55.8204C191.042 54.8291 190.321 53.8684 189.558 52.941V52.9272L189.517 52.8926C189.316 52.6302 189.088 52.3955 188.867 52.1331H188.861C188.277 51.4444 187.669 50.7765 187.038 50.1306C186.913 50.0201 186.817 49.9097 186.706 49.7992L186.209 49.2951C186.064 49.1708 185.926 49.0534 185.781 48.9153C185.235 48.4044 184.683 47.8796 184.103 47.3755C183.889 47.2029 183.675 47.0026 183.454 46.8231C182.991 46.4295 182.473 46.0912 181.99 45.7252C181.507 45.3523 181.03 44.9725 180.533 44.6342C180.312 44.4754 180.084 44.3373 179.856 44.1923C179.269 43.7987 178.655 43.4465 178.047 43.0944C177.504 42.7383 176.942 42.4132 176.362 42.1208C175.547 41.7035 174.72 41.3074 173.883 40.9331C173.587 40.8019 173.283 40.6569 172.965 40.5257C172.13 40.1735 171.273 39.8766 170.41 39.5728C170.106 39.4692 169.796 39.338 169.485 39.2344C169.299 39.1723 169.119 39.1309 168.939 39.0894C167.917 38.7827 166.883 38.5177 165.839 38.2954C165.466 38.2056 165.08 38.1365 164.7 38.0606C164.209 37.9639 163.699 37.9156 163.208 37.8327C162.78 37.7706 162.366 37.6877 161.938 37.6394C161.551 37.591 161.185 37.5289 160.805 37.4944H160.674C159.428 37.3741 158.177 37.3096 156.925 37.301H156.876C155.497 37.3093 154.12 37.3807 152.747 37.5151C152.278 37.5565 151.822 37.6601 151.373 37.7153C150.466 37.822 149.563 37.9602 148.666 38.1296C148.135 38.247 147.61 38.392 147.071 38.537C146.34 38.6982 145.614 38.8848 144.896 39.0963L144.751 39.1447H144.744C144.178 39.3104 143.626 39.5245 143.066 39.7247C142.376 39.9802 141.678 40.2081 141.002 40.4773L140.981 40.4843C140.422 40.719 139.89 40.9814 139.344 41.2369L138.343 41.7134C137.458 42.1219 136.603 42.5902 135.781 43.1151C135.205 43.4443 134.636 43.7873 134.076 44.1439L133.945 44.213C133.441 44.5582 132.937 44.9311 132.439 45.2764C131.875 45.6746 131.322 46.089 130.782 46.5193C130.761 46.5331 130.761 46.5469 130.741 46.5469C130.267 46.9374 129.802 47.338 129.346 47.7484L128.918 48.1143C128.524 48.4596 128.151 48.8048 127.778 49.157C127.334 49.5755 126.905 50.0108 126.494 50.4621C126.004 50.973 125.52 51.4978 125.058 52.0433C124.754 52.3886 124.485 52.7545 124.188 53.0929L123.898 53.4588C123.684 53.7351 123.477 54.032 123.263 54.3151C123.045 54.5913 122.833 54.8721 122.627 55.1575V55.1713C122.441 55.4268 122.268 55.6892 122.082 55.9585C121.937 56.1932 121.771 56.4211 121.619 56.6697C121.286 57.1743 120.971 57.6902 120.673 58.2164C120.618 58.3131 120.549 58.4029 120.507 58.5064L120.466 58.5272C120.163 59.0503 119.87 59.5798 119.589 60.1153V60.1222C119.465 60.3501 119.375 60.5918 119.244 60.8403C119.057 61.2547 118.85 61.6482 118.65 62.0625L118.643 62.0971C118.392 62.6317 118.155 63.1728 117.932 63.7198L117.925 63.7474C117.649 64.4172 117.407 65.1077 117.172 65.7913L117.158 65.8396C116.972 66.3989 116.772 66.9513 116.613 67.5175L116.606 67.5521C116.496 67.9249 116.406 68.3047 116.302 68.6983C116.226 69.0366 116.13 69.3819 116.04 69.7064V69.7479C115.964 70.0862 115.847 70.4246 115.777 70.756C115.722 70.9908 115.702 71.2255 115.653 71.4603V71.481C115.612 71.6675 115.591 71.8677 115.557 72.0472C115.46 72.6135 115.384 73.1659 115.301 73.7459L115.294 73.8149C115.206 74.3858 115.134 74.9592 115.08 75.5343V75.555C115.052 75.7345 115.059 75.921 115.052 76.1005C114.951 77.1818 114.896 78.2668 114.887 79.3528C114.887 80.6509 114.963 81.9353 115.08 83.1989C115.101 83.5027 115.142 83.8066 115.184 84.1173C115.315 85.2497 115.481 86.3683 115.688 87.4731L115.764 87.8805C116.012 89.082 116.337 90.2835 116.689 91.4573L116.972 92.3205C117.29 93.2941 117.649 94.2401 118.029 95.1861C118.125 95.4001 118.201 95.6211 118.298 95.8628C118.894 97.2221 119.56 98.5496 120.293 99.8401C120.521 100.254 120.777 100.648 121.018 101.042C121.288 101.477 121.55 101.946 121.833 102.367C121.978 102.574 122.109 102.795 122.254 103.01C123.065 104.199 123.943 105.34 124.885 106.428C125.541 107.208 126.232 107.967 126.95 108.699C127.095 108.844 127.247 109.017 127.406 109.169C128.433 110.186 129.514 111.147 130.644 112.048C131.466 112.718 132.315 113.353 133.192 113.954L133.606 114.258C135.769 115.691 138.049 116.938 140.422 117.987L140.698 118.111C141.83 118.587 142.99 119.015 144.164 119.395C144.406 119.478 144.641 119.54 144.882 119.609C146.075 119.983 147.285 120.298 148.507 120.555C149.757 120.818 151.028 120.99 152.305 121.135C152.554 121.163 152.795 121.197 153.044 121.211C155.744 121.493 158.466 121.486 161.164 121.191C161.378 121.177 161.572 121.128 161.779 121.094C162.946 120.956 164.106 120.804 165.238 120.562C165.618 120.5 165.977 120.369 166.35 120.293C167.296 120.065 168.242 119.844 169.167 119.561C169.602 119.416 170.037 119.257 170.465 119.105C171.3 118.828 172.124 118.522 172.937 118.187C173.407 118 173.856 117.772 174.312 117.558C175.057 117.213 175.817 116.861 176.535 116.481C177.011 116.24 177.467 115.95 177.916 115.687C178.613 115.28 179.283 114.879 179.946 114.444C180.402 114.134 180.851 113.809 181.3 113.491C181.924 113.045 182.539 112.584 183.143 112.11C183.585 111.758 183.999 111.385 184.441 111.012C185.008 110.522 185.567 110.011 186.099 109.493C186.52 109.1 186.92 108.672 187.321 108.25C188.245 107.295 189.116 106.29 189.931 105.24C191.201 103.64 192.348 101.945 193.363 100.172C193.666 99.6403 193.961 99.1039 194.246 98.5626C194.847 97.3706 195.409 96.1593 195.931 94.9306C196.194 94.2677 196.428 93.6048 196.649 92.9212C196.857 92.3205 197.064 91.7266 197.236 91.1121C197.43 90.4285 197.616 89.7449 197.775 89.0475C197.92 88.4122 198.079 87.7908 198.203 87.1624C198.334 86.4512 198.431 85.7469 198.528 85.0149C198.624 84.3659 198.721 83.7168 198.769 83.0608C198.797 82.8122 198.797 82.5429 198.818 82.2805C198.88 81.3069 198.963 80.3333 198.963 79.3459C198.972 78.0018 198.912 76.6581 198.783 75.3202V75.3202ZM120.217 138.571V471.408H193.646V142.72L120.217 138.571Z" fill="#86B9E6"/>
</svg>
